<?xml version="1.0" encoding="UTF-8" standalone="no"?>
<!DOCTYPE svg PUBLIC "-//W3C//DTD SVG 1.1//EN" "http://www.w3.org/Graphics/SVG/1.1/DTD/svg11.dtd">
<svg xmlns="http://www.w3.org/2000/svg" version="1.1" viewBox="0 0 512 512">
<path fill="#333333" d="
  M 31.92 0.03
  L 479.58 0.01
  Q 480.06 5.23 479.13 15.68
  Q 459.39 238.10 439.67 460.54
  A 0.99 0.99 0.0 0 1 438.94 461.41
  L 257.44 512.00
  L 254.42 512.07
  L 73.02 461.47
  A 0.99 0.99 0.0 0 1 72.29 460.60
  Q 51.57 230.43 31.92 0.03
  Z
  M 336.21 146.28
  A 1.01 1.00 3.3 0 1 337.17 147.35
  L 333.07 204.05
  A 0.99 0.99 0.0 0 1 332.07 204.97
  C 263.12 204.92 194.04 207.32 125.18 207.00
  A 1.00 0.99 -2.8 0 0 124.18 208.10
  L 129.38 258.82
  A 1.01 1.00 86.0 0 0 130.41 259.72
  C 132.57 259.64 135.01 259.99 137.13 259.99
  Q 217.91 260.03 298.69 259.75
  Q 313.24 259.70 327.17 259.06
  A 0.99 0.99 0.0 0 1 328.21 260.16
  L 319.71 338.19
  A 1.01 0.99 -4.7 0 1 318.97 339.05
  L 256.07 355.98
  A 1.00 1.00 0.0 0 1 255.55 355.98
  L 193.15 339.11
  A 1.00 0.99 -88.1 0 1 192.43 338.34
  C 191.76 335.00 191.68 330.40 191.45 328.14
  Q 189.73 310.59 188.31 292.99
  A 1.01 1.00 -87.8 0 0 187.48 292.09
  Q 184.99 291.65 182.47 291.78
  C 168.84 292.47 154.94 292.00 141.27 292.00
  C 139.46 292.00 135.95 291.49 133.30 292.03
  A 1.01 1.00 -8.4 0 0 132.50 293.10
  L 140.33 381.03
  A 1.01 1.00 5.5 0 0 141.06 381.91
  Q 196.92 397.25 252.78 412.66
  Q 256.16 413.59 260.00 412.53
  Q 315.52 397.18 370.96 381.86
  A 0.99 0.99 0.0 0 0 371.69 380.99
  L 397.14 96.10
  A 1.00 0.99 -87.4 0 0 396.15 95.01
  L 115.86 95.00
  A 1.00 0.99 -1.9 0 0 114.86 96.06
  L 118.16 146.01
  A 1.02 1.00 87.8 0 0 119.16 146.95
  Q 218.62 147.16 318.34 146.82
  C 323.64 146.81 330.35 146.03 336.21 146.28
  Z"
/>
</svg>
