<?xml version="1.0" encoding="UTF-8" standalone="no"?>
<!DOCTYPE svg PUBLIC "-//W3C//DTD SVG 1.1//EN" "http://www.w3.org/Graphics/SVG/1.1/DTD/svg11.dtd">
<svg xmlns="http://www.w3.org/2000/svg" version="1.1" viewBox="0 0 512 512">
<path stroke="#999999" stroke-width="2.00" fill="none" stroke-linecap="butt" vector-effect="non-scaling-stroke" d="
  M 339.60 168.37
  Q 347.78 188.36 341.40 209.00
  A 0.99 0.99 0.0 0 0 341.61 209.96
  C 360.23 230.87 360.77 258.70 352.47 284.39
  C 345.29 306.64 327.86 320.19 305.48 325.44
  Q 294.64 327.98 286.99 329.00
  A 1.00 1.00 0.0 0 0 286.33 330.60
  Q 292.68 338.89 294.48 348.81
  Q 295.18 352.65 295.26 368.77
  Q 295.32 382.45 295.04 396.14
  C 294.80 407.55 298.79 411.31 310.18 407.25
  C 416.75 369.20 450.88 237.25 373.81 153.80
  C 290.31 63.39 134.41 98.80 101.60 219.08
  C 79.66 299.51 125.06 380.56 202.49 407.90
  C 207.95 409.82 215.79 409.74 215.98 402.24
  Q 216.09 397.98 215.97 376.17
  A 1.00 1.00 0.0 0 0 214.82 375.19
  Q 204.96 376.68 202.75 376.72
  C 184.97 377.09 171.19 371.46 162.88 355.04
  C 158.00 345.41 154.57 337.56 144.96 331.11
  C 141.88 329.05 133.23 323.51 141.93 321.45
  Q 144.24 320.91 146.60 321.14
  C 156.76 322.17 164.01 328.59 169.71 336.83
  C 174.26 343.40 178.94 349.08 186.42 352.08
  C 195.77 355.83 206.69 354.39 216.02 350.42
  A 1.00 1.00 0.0 0 0 216.62 349.64
  Q 218.12 338.79 225.40 330.80
  Q 226.74 329.32 224.75 329.13
  Q 208.86 327.58 194.13 321.57
  C 172.25 312.64 160.57 296.01 156.12 273.53
  C 151.54 250.37 153.65 228.28 169.83 210.07
  A 1.01 1.00 56.8 0 0 170.03 209.09
  Q 163.26 188.44 171.66 168.40
  A 0.99 0.99 0.0 0 1 172.46 167.79
  C 186.19 166.19 203.93 175.74 215.36 183.68
  A 1.02 0.99 -33.7 0 0 216.18 183.83
  Q 255.78 173.43 295.37 183.78
  A 1.03 1.01 -54.8 0 0 296.19 183.63
  C 307.87 175.63 324.21 166.53 338.76 167.75
  A 1.00 0.99 81.3 0 1 339.60 168.37"
/>
<path fill="#333333" d="
  M 0.00 0.00
  L 512.00 0.00
  L 512.00 512.00
  L 0.00 512.00
  L 0.00 0.00
  Z
  M 339.60 168.37
  Q 347.78 188.36 341.40 209.00
  A 0.99 0.99 0.0 0 0 341.61 209.96
  C 360.23 230.87 360.77 258.70 352.47 284.39
  C 345.29 306.64 327.86 320.19 305.48 325.44
  Q 294.64 327.98 286.99 329.00
  A 1.00 1.00 0.0 0 0 286.33 330.60
  Q 292.68 338.89 294.48 348.81
  Q 295.18 352.65 295.26 368.77
  Q 295.32 382.45 295.04 396.14
  C 294.80 407.55 298.79 411.31 310.18 407.25
  C 416.75 369.20 450.88 237.25 373.81 153.80
  C 290.31 63.39 134.41 98.80 101.60 219.08
  C 79.66 299.51 125.06 380.56 202.49 407.90
  C 207.95 409.82 215.79 409.74 215.98 402.24
  Q 216.09 397.98 215.97 376.17
  A 1.00 1.00 0.0 0 0 214.82 375.19
  Q 204.96 376.68 202.75 376.72
  C 184.97 377.09 171.19 371.46 162.88 355.04
  C 158.00 345.41 154.57 337.56 144.96 331.11
  C 141.88 329.05 133.23 323.51 141.93 321.45
  Q 144.24 320.91 146.60 321.14
  C 156.76 322.17 164.01 328.59 169.71 336.83
  C 174.26 343.40 178.94 349.08 186.42 352.08
  C 195.77 355.83 206.69 354.39 216.02 350.42
  A 1.00 1.00 0.0 0 0 216.62 349.64
  Q 218.12 338.79 225.40 330.80
  Q 226.74 329.32 224.75 329.13
  Q 208.86 327.58 194.13 321.57
  C 172.25 312.64 160.57 296.01 156.12 273.53
  C 151.54 250.37 153.65 228.28 169.83 210.07
  A 1.01 1.00 56.8 0 0 170.03 209.09
  Q 163.26 188.44 171.66 168.40
  A 0.99 0.99 0.0 0 1 172.46 167.79
  C 186.19 166.19 203.93 175.74 215.36 183.68
  A 1.02 0.99 -33.7 0 0 216.18 183.83
  Q 255.78 173.43 295.37 183.78
  A 1.03 1.01 -54.8 0 0 296.19 183.63
  C 307.87 175.63 324.21 166.53 338.76 167.75
  A 1.00 0.99 81.3 0 1 339.60 168.37
  Z"
/>
<path fill="#ffffff" d="
  M 338.76 167.75
  C 324.21 166.53 307.87 175.63 296.19 183.63
  A 1.03 1.01 -54.8 0 1 295.37 183.78
  Q 255.78 173.43 216.18 183.83
  A 1.02 0.99 -33.7 0 1 215.36 183.68
  C 203.93 175.74 186.19 166.19 172.46 167.79
  A 0.99 0.99 0.0 0 0 171.66 168.40
  Q 163.26 188.44 170.03 209.09
  A 1.01 1.00 56.8 0 1 169.83 210.07
  C 153.65 228.28 151.54 250.37 156.12 273.53
  C 160.57 296.01 172.25 312.64 194.13 321.57
  Q 208.86 327.58 224.75 329.13
  Q 226.74 329.32 225.40 330.80
  Q 218.12 338.79 216.62 349.64
  A 1.00 1.00 0.0 0 1 216.02 350.42
  C 206.69 354.39 195.77 355.83 186.42 352.08
  C 178.94 349.08 174.26 343.40 169.71 336.83
  C 164.01 328.59 156.76 322.17 146.60 321.14
  Q 144.24 320.91 141.93 321.45
  C 133.23 323.51 141.88 329.05 144.96 331.11
  C 154.57 337.56 158.00 345.41 162.88 355.04
  C 171.19 371.46 184.97 377.09 202.75 376.72
  Q 204.96 376.68 214.82 375.19
  A 1.00 1.00 0.0 0 1 215.97 376.17
  Q 216.09 397.98 215.98 402.24
  C 215.79 409.74 207.95 409.82 202.49 407.90
  C 125.06 380.56 79.66 299.51 101.60 219.08
  C 134.41 98.80 290.31 63.39 373.81 153.80
  C 450.88 237.25 416.75 369.20 310.18 407.25
  C 298.79 411.31 294.80 407.55 295.04 396.14
  Q 295.32 382.45 295.26 368.77
  Q 295.18 352.65 294.48 348.81
  Q 292.68 338.89 286.33 330.60
  A 1.00 1.00 0.0 0 1 286.99 329.00
  Q 294.64 327.98 305.48 325.44
  C 327.86 320.19 345.29 306.64 352.47 284.39
  C 360.77 258.70 360.23 230.87 341.61 209.96
  A 0.99 0.99 0.0 0 1 341.40 209.00
  Q 347.78 188.36 339.60 168.37
  A 1.00 0.99 81.3 0 0 338.76 167.75
  Z"
/>
</svg>
