<?xml version="1.0" encoding="UTF-8" standalone="no"?>
<!DOCTYPE svg PUBLIC "-//W3C//DTD SVG 1.1//EN" "http://www.w3.org/Graphics/SVG/1.1/DTD/svg11.dtd">
<svg xmlns="http://www.w3.org/2000/svg" version="1.1" viewBox="0 0 512 512">
<path fill="#333333" d="
  M 29.93 0.03
  L 482.38 0.03
  L 450.87 447.91
  A 1.01 1.00 83.1 0 1 450.19 448.79
  L 258.19 512.00
  L 254.44 512.00
  L 61.71 448.63
  A 1.00 0.99 -81.4 0 1 61.03 447.70
  Q 60.97 445.27 60.79 442.77
  Q 44.91 221.43 29.93 0.03
  Z
  M 327.76 272.50
  C 327.91 272.86 327.99 272.80 327.96 273.23
  Q 325.29 310.45 322.67 348.25
  A 1.01 1.00 -7.9 0 1 321.99 349.14
  L 256.96 370.84
  A 1.07 1.05 -45.5 0 1 256.34 370.85
  Q 225.40 361.21 194.59 350.70
  Q 191.33 349.59 190.84 349.24
  C 188.05 347.30 188.97 337.62 188.97 334.31
  Q 188.97 332.01 186.69 332.01
  L 130.51 331.99
  A 1.00 1.00 0.0 0 0 129.51 333.06
  L 133.44 391.20
  A 1.00 0.99 8.0 0 0 134.11 392.08
  L 255.65 433.08
  A 0.98 0.93 43.7 0 0 256.28 433.08
  L 378.00 392.53
  A 0.99 0.99 0.0 0 0 378.68 391.65
  Q 384.88 304.16 391.21 217.19
  Q 391.37 214.90 391.23 212.93
  A 1.01 1.00 87.8 0 0 390.23 212.00
  L 180.92 212.00
  A 0.99 0.99 0.0 0 1 179.93 211.07
  Q 177.40 176.23 175.11 141.57
  Q 174.89 138.16 175.17 135.88
  A 1.00 1.00 0.0 0 1 176.16 135.00
  L 395.94 135.00
  A 1.01 1.00 -87.8 0 0 396.94 134.07
  L 401.07 76.07
  A 1.00 1.00 0.0 0 0 400.07 75.00
  L 112.18 75.00
  A 1.00 1.00 0.0 0 0 111.18 76.07
  L 124.85 271.07
  A 1.01 1.00 87.8 0 0 125.85 272.00
  L 327.02 272.00
  A 0.80 0.80 0.0 0 1 327.76 272.50
  Z"
/>
</svg>
