<?xml version="1.0" encoding="UTF-8" standalone="no"?>
<!DOCTYPE svg PUBLIC "-//W3C//DTD SVG 1.1//EN" "http://www.w3.org/Graphics/SVG/1.1/DTD/svg11.dtd">
<svg xmlns="http://www.w3.org/2000/svg" version="1.1" viewBox="0 0 480 480">
<path fill="#333333" d="
  M 0.00 0.00
  L 480.00 0.00
  L 480.00 480.00
  L 0.00 480.00
  L 0.00 0.00
  Z
  M 367.99 152.04
  A 23.94 23.94 0.0 0 0 344.05 128.10
  A 23.94 23.94 0.0 0 0 320.11 152.04
  A 23.94 23.94 0.0 0 0 344.05 175.98
  A 23.94 23.94 0.0 0 0 367.99 152.04
  Z
  M 170.33 295.75
  L 241.26 295.75
  A 1.00 1.00 0.0 0 1 242.20 296.41
  L 261.33 349.47
  Q 262.15 351.75 264.50 351.75
  L 302.78 351.75
  A 1.01 1.01 0.0 0 0 303.73 350.42
  L 230.47 136.93
  A 1.00 0.99 80.5 0 0 229.53 136.25
  L 181.06 136.25
  A 1.00 1.00 0.0 0 0 180.06 137.27
  Q 180.29 147.39 177.09 156.95
  Q 144.71 253.51 112.72 348.69
  Q 111.70 351.74 115.01 351.74
  L 149.52 351.75
  A 1.02 1.00 -80.1 0 0 150.47 351.07
  L 169.39 296.42
  A 0.99 0.99 0.0 0 1 170.33 295.75
  Z
  M 363.50 195.26
  A 2.75 2.75 0.0 0 0 360.75 192.51
  L 327.25 192.51
  A 2.75 2.75 0.0 0 0 324.50 195.26
  L 324.50 348.74
  A 2.75 2.75 0.0 0 0 327.25 351.49
  L 360.75 351.49
  A 2.75 2.75 0.0 0 0 363.50 348.74
  L 363.50 195.26
  Z"
/>
<path fill="#333333" d="
  M 177.80 259.26
  L 204.45 170.39
  A 0.88 0.88 0.0 0 1 206.13 170.38
  L 233.71 258.97
  A 0.88 0.88 0.0 0 1 232.88 260.11
  L 178.65 260.39
  A 0.88 0.88 0.0 0 1 177.80 259.26
  Z"
/>
</svg>
