<?xml version="1.0" encoding="UTF-8" standalone="no"?>
<!DOCTYPE svg PUBLIC "-//W3C//DTD SVG 1.1//EN" "http://www.w3.org/Graphics/SVG/1.1/DTD/svg11.dtd">
<svg xmlns="http://www.w3.org/2000/svg" version="1.1" viewBox="0 0 512 512">
<path fill="#333333" d="
  M 0.00 0.00
  L 512.00 0.00
  L 512.00 512.00
  L 0.00 512.00
  L 0.00 0.00
  Z
  M 337.35 343.40
  C 353.33 359.76 375.58 367.36 395.79 376.47
  C 407.33 381.68 421.34 387.54 423.73 400.74
  C 426.70 417.13 413.70 426.74 399.01 428.70
  C 374.53 431.98 357.00 421.21 344.43 400.96
  A 1.01 1.00 58.8 0 0 343.07 400.62
  L 305.77 422.32
  A 1.00 0.99 -29.5 0 0 305.39 423.66
  C 326.50 462.22 366.13 475.54 408.25 470.69
  C 439.30 467.12 466.29 448.89 471.12 416.22
  Q 472.87 404.39 470.99 391.25
  C 464.90 348.74 420.57 335.37 387.69 320.31
  C 378.24 315.98 368.85 310.02 367.07 300.45
  C 364.06 284.24 374.75 274.42 390.10 274.17
  C 401.22 273.98 410.35 279.33 416.72 288.55
  Q 418.52 291.16 420.15 293.87
  A 1.00 0.99 58.1 0 0 421.54 294.20
  L 457.03 271.42
  A 1.00 1.00 0.0 0 0 457.37 270.10
  Q 438.99 236.68 400.53 233.03
  Q 382.95 231.36 368.26 234.99
  C 341.60 241.59 322.05 261.87 319.78 289.75
  C 318.14 309.77 323.20 328.92 337.35 343.40
  Z
  M 135.46 428.67
  C 151.33 462.38 184.02 474.75 219.50 470.91
  C 259.74 466.54 278.70 438.08 278.73 399.25
  Q 278.78 317.53 278.74 236.00
  A 1.00 1.00 0.0 0 0 277.74 235.00
  L 232.01 235.00
  A 1.01 1.00 0.0 0 0 231.00 236.00
  Q 231.02 317.72 230.97 399.43
  C 230.96 410.88 228.07 423.71 215.80 427.49
  C 195.55 433.74 182.80 421.91 174.50 405.24
  A 0.99 0.99 0.0 0 0 173.09 404.83
  L 135.85 427.39
  A 1.01 1.00 -28.3 0 0 135.46 428.67
  Z"
/>
</svg>
