<?xml version="1.0" encoding="UTF-8" standalone="no"?>
<!DOCTYPE svg PUBLIC "-//W3C//DTD SVG 1.1//EN" "http://www.w3.org/Graphics/SVG/1.1/DTD/svg11.dtd">
<svg xmlns="http://www.w3.org/2000/svg" version="1.1" viewBox="0 0 512 512">
<g stroke-width="2.00" fill="none" stroke-linecap="butt">
<path stroke="#999999" vector-effect="non-scaling-stroke" d="
  M 201.01 209.19
  C 202.80 235.76 226.50 256.49 248.50 269.33
  Q 252.07 271.41 249.24 268.39
  C 234.95 253.14 222.37 237.45 220.87 215.58
  C 219.67 198.17 229.53 183.99 241.63 173.13
  Q 268.93 148.61 276.98 139.99
  C 296.56 119.03 311.32 87.98 292.81 60.93
  C 292.71 60.79 292.43 60.69 292.29 60.73
  A 0.52 0.51 78.1 0 0 291.92 61.31
  C 294.54 77.20 293.57 89.43 285.25 103.64
  C 274.61 121.80 255.94 136.26 238.92 150.22
  C 220.57 165.26 199.31 183.88 201.01 209.19"
/>
<path stroke="#999999" vector-effect="non-scaling-stroke" d="
  M 289.51 156.73
  C 264.53 172.21 244.01 199.45 263.05 229.00
  C 273.85 245.76 284.63 261.78 270.38 279.79
  A 0.85 0.84 49.8 0 0 270.31 280.73
  L 270.59 281.23
  A 0.61 0.61 0.0 0 0 271.46 281.44
  C 285.48 272.35 303.14 254.68 293.70 236.06
  C 289.43 227.63 281.20 216.01 278.21 205.50
  C 270.16 177.22 305.52 151.40 326.27 140.58
  C 326.45 140.48 326.80 140.09 326.90 139.93
  Q 327.34 139.25 326.57 139.50
  Q 306.97 145.91 289.51 156.73"
/>
<path stroke="#999999" vector-effect="non-scaling-stroke" d="
  M 360.25 270.62
  C 384.94 277.54 378.01 306.00 364.47 318.98
  Q 351.69 331.22 335.90 339.47
  A 1.11 1.11 0.0 0 0 335.40 340.90
  C 336.43 343.20 406.22 319.56 392.26 283.66
  C 386.00 267.56 365.43 263.64 350.69 268.45
  Q 349.79 268.74 350.04 269.49
  A 0.73 0.72 80.3 0 0 350.72 269.98
  C 353.96 269.97 357.21 269.77 360.25 270.62"
/>
<path stroke="#999999" vector-effect="non-scaling-stroke" d="
  M 339.41 293.03
  L 329.76 287.37
  A 1.35 1.35 0.0 0 0 328.80 287.22
  Q 277.22 298.44 224.50 294.73
  Q 207.08 293.50 190.04 289.86
  Q 184.67 288.72 179.77 286.17
  Q 177.25 284.86 178.48 282.31
  C 181.26 276.56 206.85 271.86 213.17 270.78
  A 0.30 0.29 65.9 0 0 213.35 270.30
  C 212.98 269.83 208.26 269.95 207.48 270.03
  C 195.29 271.29 161.51 275.27 154.17 285.81
  Q 152.74 287.86 154.48 289.65
  C 160.28 295.62 172.32 298.57 180.24 300.30
  Q 195.59 303.64 211.24 305.11
  Q 253.33 309.06 295.26 303.85
  Q 318.06 301.01 339.33 293.80
  Q 340.21 293.50 339.41 293.03"
/>
<path stroke="#999999" vector-effect="non-scaling-stroke" d="
  M 322.92 333.55
  C 321.77 331.90 312.29 327.27 309.94 325.95
  A 1.29 1.26 51.9 0 0 309.02 325.83
  C 282.14 332.30 255.04 333.67 227.45 331.62
  C 216.96 330.84 206.42 329.57 196.61 325.23
  Q 193.76 323.98 193.37 320.88
  C 193.10 318.77 195.89 317.13 197.34 315.73
  Q 197.70 315.38 197.20 315.44
  C 191.12 316.19 170.80 320.29 170.09 326.93
  C 169.25 334.71 189.62 339.33 194.30 340.30
  Q 250.75 351.96 306.95 339.30
  Q 315.06 337.47 322.73 334.21
  A 0.45 0.44 -29.4 0 0 322.92 333.55"
/>
<path stroke="#999999" vector-effect="non-scaling-stroke" d="
  M 306.03 375.93
  L 290.20 366.80
  A 1.38 1.34 -35.6 0 0 289.21 366.65
  Q 260.68 372.87 231.55 370.29
  C 229.03 370.07 201.53 367.11 208.12 359.79
  Q 209.17 358.62 207.61 358.84
  C 203.12 359.46 183.76 364.01 187.60 372.08
  C 193.64 384.74 236.24 387.34 248.26 387.28
  C 267.37 387.17 288.60 385.37 306.01 376.68
  Q 306.72 376.33 306.03 375.93"
/>
<path stroke="#999999" vector-effect="non-scaling-stroke" d="
  M 364.41 385.48
  C 363.06 386.53 362.26 388.45 361.22 389.47
  C 351.91 398.67 332.90 403.41 319.52 405.64
  C 272.15 413.57 222.01 413.88 174.78 403.89
  C 165.73 401.97 155.20 399.43 147.62 393.87
  C 143.20 390.63 145.34 385.89 148.55 382.54
  C 153.74 377.14 164.52 373.50 172.02 371.55
  A 0.35 0.35 0.0 0 0 172.20 370.99
  Q 171.55 370.22 170.00 370.49
  C 155.23 373.05 128.53 377.84 119.41 390.43
  C 106.84 407.78 170.03 417.00 176.47 417.90
  Q 245.02 427.49 313.44 417.24
  Q 335.50 413.94 354.19 406.48
  C 361.02 403.75 375.44 394.14 365.19 385.50
  A 0.62 0.61 -43.4 0 0 364.41 385.48"
/>
<path stroke="#999999" vector-effect="non-scaling-stroke" d="
  M 166.28 431.69
  C 199.59 441.47 235.28 442.93 270.69 441.91
  C 293.17 441.26 380.20 433.21 384.76 403.47
  Q 384.84 402.97 384.46 403.29
  C 367.00 418.12 342.80 425.41 321.24 429.26
  C 271.53 438.15 217.98 438.53 167.71 430.67
  C 167.29 430.60 166.36 430.97 166.14 431.27
  A 0.27 0.27 0.0 0 0 166.28 431.69"
/>
</g>
<path fill="#333333" d="
  M 0.00 0.00
  L 512.00 0.00
  L 512.00 512.00
  L 0.00 512.00
  L 0.00 0.00
  Z
  M 201.01 209.19
  C 202.80 235.76 226.50 256.49 248.50 269.33
  Q 252.07 271.41 249.24 268.39
  C 234.95 253.14 222.37 237.45 220.87 215.58
  C 219.67 198.17 229.53 183.99 241.63 173.13
  Q 268.93 148.61 276.98 139.99
  C 296.56 119.03 311.32 87.98 292.81 60.93
  C 292.71 60.79 292.43 60.69 292.29 60.73
  A 0.52 0.51 78.1 0 0 291.92 61.31
  C 294.54 77.20 293.57 89.43 285.25 103.64
  C 274.61 121.80 255.94 136.26 238.92 150.22
  C 220.57 165.26 199.31 183.88 201.01 209.19
  Z
  M 289.51 156.73
  C 264.53 172.21 244.01 199.45 263.05 229.00
  C 273.85 245.76 284.63 261.78 270.38 279.79
  A 0.85 0.84 49.8 0 0 270.31 280.73
  L 270.59 281.23
  A 0.61 0.61 0.0 0 0 271.46 281.44
  C 285.48 272.35 303.14 254.68 293.70 236.06
  C 289.43 227.63 281.20 216.01 278.21 205.50
  C 270.16 177.22 305.52 151.40 326.27 140.58
  C 326.45 140.48 326.80 140.09 326.90 139.93
  Q 327.34 139.25 326.57 139.50
  Q 306.97 145.91 289.51 156.73
  Z
  M 360.25 270.62
  C 384.94 277.54 378.01 306.00 364.47 318.98
  Q 351.69 331.22 335.90 339.47
  A 1.11 1.11 0.0 0 0 335.40 340.90
  C 336.43 343.20 406.22 319.56 392.26 283.66
  C 386.00 267.56 365.43 263.64 350.69 268.45
  Q 349.79 268.74 350.04 269.49
  A 0.73 0.72 80.3 0 0 350.72 269.98
  C 353.96 269.97 357.21 269.77 360.25 270.62
  Z
  M 339.41 293.03
  L 329.76 287.37
  A 1.35 1.35 0.0 0 0 328.80 287.22
  Q 277.22 298.44 224.50 294.73
  Q 207.08 293.50 190.04 289.86
  Q 184.67 288.72 179.77 286.17
  Q 177.25 284.86 178.48 282.31
  C 181.26 276.56 206.85 271.86 213.17 270.78
  A 0.30 0.29 65.9 0 0 213.35 270.30
  C 212.98 269.83 208.26 269.95 207.48 270.03
  C 195.29 271.29 161.51 275.27 154.17 285.81
  Q 152.74 287.86 154.48 289.65
  C 160.28 295.62 172.32 298.57 180.24 300.30
  Q 195.59 303.64 211.24 305.11
  Q 253.33 309.06 295.26 303.85
  Q 318.06 301.01 339.33 293.80
  Q 340.21 293.50 339.41 293.03
  Z
  M 322.92 333.55
  C 321.77 331.90 312.29 327.27 309.94 325.95
  A 1.29 1.26 51.9 0 0 309.02 325.83
  C 282.14 332.30 255.04 333.67 227.45 331.62
  C 216.96 330.84 206.42 329.57 196.61 325.23
  Q 193.76 323.98 193.37 320.88
  C 193.10 318.77 195.89 317.13 197.34 315.73
  Q 197.70 315.38 197.20 315.44
  C 191.12 316.19 170.80 320.29 170.09 326.93
  C 169.25 334.71 189.62 339.33 194.30 340.30
  Q 250.75 351.96 306.95 339.30
  Q 315.06 337.47 322.73 334.21
  A 0.45 0.44 -29.4 0 0 322.92 333.55
  Z
  M 306.03 375.93
  L 290.20 366.80
  A 1.38 1.34 -35.6 0 0 289.21 366.65
  Q 260.68 372.87 231.55 370.29
  C 229.03 370.07 201.53 367.11 208.12 359.79
  Q 209.17 358.62 207.61 358.84
  C 203.12 359.46 183.76 364.01 187.60 372.08
  C 193.64 384.74 236.24 387.34 248.26 387.28
  C 267.37 387.17 288.60 385.37 306.01 376.68
  Q 306.72 376.33 306.03 375.93
  Z
  M 364.41 385.48
  C 363.06 386.53 362.26 388.45 361.22 389.47
  C 351.91 398.67 332.90 403.41 319.52 405.64
  C 272.15 413.57 222.01 413.88 174.78 403.89
  C 165.73 401.97 155.20 399.43 147.62 393.87
  C 143.20 390.63 145.34 385.89 148.55 382.54
  C 153.74 377.14 164.52 373.50 172.02 371.55
  A 0.35 0.35 0.0 0 0 172.20 370.99
  Q 171.55 370.22 170.00 370.49
  C 155.23 373.05 128.53 377.84 119.41 390.43
  C 106.84 407.78 170.03 417.00 176.47 417.90
  Q 245.02 427.49 313.44 417.24
  Q 335.50 413.94 354.19 406.48
  C 361.02 403.75 375.44 394.14 365.19 385.50
  A 0.62 0.61 -43.4 0 0 364.41 385.48
  Z
  M 166.28 431.69
  C 199.59 441.47 235.28 442.93 270.69 441.91
  C 293.17 441.26 380.20 433.21 384.76 403.47
  Q 384.84 402.97 384.46 403.29
  C 367.00 418.12 342.80 425.41 321.24 429.26
  C 271.53 438.15 217.98 438.53 167.71 430.67
  C 167.29 430.60 166.36 430.97 166.14 431.27
  A 0.27 0.27 0.0 0 0 166.28 431.69
  Z"
/>
<path fill="#ffffff" d="
  M 248.50 269.33
  C 226.50 256.49 202.80 235.76 201.01 209.19
  C 199.31 183.88 220.57 165.26 238.92 150.22
  C 255.94 136.26 274.61 121.80 285.25 103.64
  C 293.57 89.43 294.54 77.20 291.92 61.31
  A 0.52 0.51 78.1 0 1 292.29 60.73
  C 292.43 60.69 292.71 60.79 292.81 60.93
  C 311.32 87.98 296.56 119.03 276.98 139.99
  Q 268.93 148.61 241.63 173.13
  C 229.53 183.99 219.67 198.17 220.87 215.58
  C 222.37 237.45 234.95 253.14 249.24 268.39
  Q 252.07 271.41 248.50 269.33
  Z"
/>
<path fill="#ffffff" d="
  M 263.05 229.00
  C 244.01 199.45 264.53 172.21 289.51 156.73
  Q 306.97 145.91 326.57 139.50
  Q 327.34 139.25 326.90 139.93
  C 326.80 140.09 326.45 140.48 326.27 140.58
  C 305.52 151.40 270.16 177.22 278.21 205.50
  C 281.20 216.01 289.43 227.63 293.70 236.06
  C 303.14 254.68 285.48 272.35 271.46 281.44
  A 0.61 0.61 0.0 0 1 270.59 281.23
  L 270.31 280.73
  A 0.85 0.84 49.8 0 1 270.38 279.79
  C 284.63 261.78 273.85 245.76 263.05 229.00
  Z"
/>
<path fill="#ffffff" d="
  M 360.25 270.62
  C 357.21 269.77 353.96 269.97 350.72 269.98
  A 0.73 0.72 80.3 0 1 350.04 269.49
  Q 349.79 268.74 350.69 268.45
  C 365.43 263.64 386.00 267.56 392.26 283.66
  C 406.22 319.56 336.43 343.20 335.40 340.90
  A 1.11 1.11 0.0 0 1 335.90 339.47
  Q 351.69 331.22 364.47 318.98
  C 378.01 306.00 384.94 277.54 360.25 270.62
  Z"
/>
<path fill="#ffffff" d="
  M 339.41 293.03
  Q 340.21 293.50 339.33 293.80
  Q 318.06 301.01 295.26 303.85
  Q 253.33 309.06 211.24 305.11
  Q 195.59 303.64 180.24 300.30
  C 172.32 298.57 160.28 295.62 154.48 289.65
  Q 152.74 287.86 154.17 285.81
  C 161.51 275.27 195.29 271.29 207.48 270.03
  C 208.26 269.95 212.98 269.83 213.35 270.30
  A 0.30 0.29 65.9 0 1 213.17 270.78
  C 206.85 271.86 181.26 276.56 178.48 282.31
  Q 177.25 284.86 179.77 286.17
  Q 184.67 288.72 190.04 289.86
  Q 207.08 293.50 224.50 294.73
  Q 277.22 298.44 328.80 287.22
  A 1.35 1.35 0.0 0 1 329.76 287.37
  L 339.41 293.03
  Z"
/>
<path fill="#ffffff" d="
  M 309.94 325.95
  C 312.29 327.27 321.77 331.90 322.92 333.55
  A 0.45 0.44 -29.4 0 1 322.73 334.21
  Q 315.06 337.47 306.95 339.30
  Q 250.75 351.96 194.30 340.30
  C 189.62 339.33 169.25 334.71 170.09 326.93
  C 170.80 320.29 191.12 316.19 197.20 315.44
  Q 197.70 315.38 197.34 315.73
  C 195.89 317.13 193.10 318.77 193.37 320.88
  Q 193.76 323.98 196.61 325.23
  C 206.42 329.57 216.96 330.84 227.45 331.62
  C 255.04 333.67 282.14 332.30 309.02 325.83
  A 1.29 1.26 51.9 0 1 309.94 325.95
  Z"
/>
<path fill="#ffffff" d="
  M 306.03 375.93
  Q 306.72 376.33 306.01 376.68
  C 288.60 385.37 267.37 387.17 248.26 387.28
  C 236.24 387.34 193.64 384.74 187.60 372.08
  C 183.76 364.01 203.12 359.46 207.61 358.84
  Q 209.17 358.62 208.12 359.79
  C 201.53 367.11 229.03 370.07 231.55 370.29
  Q 260.68 372.87 289.21 366.65
  A 1.38 1.34 -35.6 0 1 290.20 366.80
  L 306.03 375.93
  Z"
/>
<path fill="#ffffff" d="
  M 365.19 385.50
  C 375.44 394.14 361.02 403.75 354.19 406.48
  Q 335.50 413.94 313.44 417.24
  Q 245.02 427.49 176.47 417.90
  C 170.03 417.00 106.84 407.78 119.41 390.43
  C 128.53 377.84 155.23 373.05 170.00 370.49
  Q 171.55 370.22 172.20 370.99
  A 0.35 0.35 0.0 0 1 172.02 371.55
  C 164.52 373.50 153.74 377.14 148.55 382.54
  C 145.34 385.89 143.20 390.63 147.62 393.87
  C 155.20 399.43 165.73 401.97 174.78 403.89
  C 222.01 413.88 272.15 413.57 319.52 405.64
  C 332.90 403.41 351.91 398.67 361.22 389.47
  C 362.26 388.45 363.06 386.53 364.41 385.48
  A 0.62 0.61 -43.4 0 1 365.19 385.50
  Z"
/>
<path fill="#ffffff" d="
  M 166.28 431.69
  A 0.27 0.27 0.0 0 1 166.14 431.27
  C 166.36 430.97 167.29 430.60 167.71 430.67
  C 217.98 438.53 271.53 438.15 321.24 429.26
  C 342.80 425.41 367.00 418.12 384.46 403.29
  Q 384.84 402.97 384.76 403.47
  C 380.20 433.21 293.17 441.26 270.69 441.91
  C 235.28 442.93 199.59 441.47 166.28 431.69
  Z"
/>
</svg>
