<?xml version="1.0" encoding="UTF-8" standalone="no"?>
<!DOCTYPE svg PUBLIC "-//W3C//DTD SVG 1.1//EN" "http://www.w3.org/Graphics/SVG/1.1/DTD/svg11.dtd">
<svg xmlns="http://www.w3.org/2000/svg" version="1.1" viewBox="0 0 512 512">
<path fill="#333333" d="
  M 0.00 0.00
  L 512.00 0.00
  L 512.00 512.00
  L 0.00 512.00
  L 0.00 0.00
  Z
  M 161.96 287.52
  Q 168.34 287.28 176.25 287.67
  C 215.56 289.62 260.73 277.45 272.76 234.01
  Q 278.86 211.97 273.37 189.79
  C 263.71 150.73 226.20 133.94 189.24 133.93
  Q 163.36 133.93 116.97 135.06
  A 1.00 0.99 89.4 0 0 116.00 136.06
  L 116.00 357.94
  A 1.00 1.00 0.0 0 0 117.00 358.94
  L 158.69 359.01
  Q 161.00 359.02 161.00 356.50
  L 161.00 288.52
  A 1.00 1.00 0.0 0 1 161.96 287.52
  Z
  M 374.44 305.56
  C 382.93 315.45 374.11 323.90 364.00 324.81
  Q 330.65 327.81 301.48 311.76
  A 1.00 1.00 0.0 0 0 300.00 312.64
  L 300.01 351.50
  A 1.00 0.97 -69.4 0 0 300.33 352.23
  Q 302.47 354.22 306.39 355.69
  C 339.17 368.01 400.35 369.58 418.12 330.89
  C 425.38 315.07 424.89 294.94 412.92 281.05
  C 399.49 265.45 379.10 259.31 360.29 251.16
  C 353.33 248.15 341.02 242.75 343.81 233.01
  C 346.37 224.06 359.92 223.34 367.75 223.75
  C 381.82 224.50 396.91 227.23 409.79 233.74
  Q 410.91 234.31 412.80 233.92
  A 1.01 0.99 88.4 0 0 413.58 233.08
  Q 414.00 230.23 414.00 228.25
  Q 414.00 211.95 414.00 195.64
  A 1.01 1.00 15.0 0 0 413.49 194.77
  C 410.51 193.08 407.27 191.67 403.80 190.84
  C 373.56 183.65 329.66 182.28 309.11 211.33
  C 296.56 229.08 297.11 253.55 311.79 269.96
  C 324.59 284.26 343.75 290.64 361.13 297.80
  C 365.62 299.65 371.94 302.66 374.44 305.56
  Z"
/>
<path fill="#333333" d="
  M 189.73 174.99
  C 208.30 175.40 228.54 184.36 230.19 205.31
  C 231.36 220.12 228.67 232.55 214.98 240.44
  Q 202.30 247.75 187.55 248.11
  Q 174.76 248.41 161.96 247.86
  A 1.00 1.00 0.0 0 1 161.00 246.86
  L 161.00 176.13
  A 1.00 1.00 0.0 0 1 161.97 175.13
  Q 175.98 174.69 189.73 174.99
  Z"
/>
</svg>
