<?xml version="1.0" encoding="UTF-8" standalone="no"?>
<!DOCTYPE svg PUBLIC "-//W3C//DTD SVG 1.1//EN" "http://www.w3.org/Graphics/SVG/1.1/DTD/svg11.dtd">
<svg xmlns="http://www.w3.org/2000/svg" version="1.1" viewBox="0 0 512 512">
<g stroke-width="1.80" fill="none" stroke-linecap="butt">
<path stroke="#999999" vector-effect="non-scaling-stroke" d="
  M 459.79 255.99
  A 203.13 106.79 0.0 0 0 256.66 149.20
  A 203.13 106.79 0.0 0 0 53.53 255.99
  A 203.13 106.79 0.0 0 0 256.66 362.78
  A 203.13 106.79 0.0 0 0 459.79 255.99"
/>
<path stroke="#999999" vector-effect="non-scaling-stroke" d="
  M 452.06 255.99
  A 195.40 99.04 0.0 0 0 256.66 156.95
  A 195.40 99.04 0.0 0 0 61.26 255.99
  A 195.40 99.04 0.0 0 0 256.66 355.03
  A 195.40 99.04 0.0 0 0 452.06 255.99"
/>
<path stroke="#999999" vector-effect="non-scaling-stroke" d="
  M 311.65 223.26
  Q 308.54 209.81 294.02 206.36
  Q 287.83 204.89 278.48 204.55
  Q 270.29 204.25 261.91 204.20
  A 1.00 0.99 5.3 0 1 260.93 203.03
  Q 262.84 192.11 265.01 181.25
  C 265.70 177.75 263.25 176.02 259.92 176.01
  Q 249.26 175.99 238.57 176.00
  C 235.32 176.00 233.83 177.15 233.25 180.26
  Q 230.39 195.49 223.88 228.02
  Q 223.27 231.07 222.34 228.10
  Q 217.94 214.17 204.98 208.47
  C 195.12 204.14 186.32 204.48 172.32 204.27
  Q 154.78 204.02 138.19 204.52
  Q 134.68 204.62 134.01 208.07
  Q 123.61 261.27 113.33 314.32
  Q 112.34 319.46 117.00 320.01
  Q 122.18 320.62 140.19 320.15
  Q 144.39 320.04 145.17 315.66
  Q 145.87 311.75 149.73 292.64
  A 1.00 1.00 0.0 0 1 150.70 291.84
  C 161.54 291.68 175.77 292.39 184.78 290.03
  Q 203.41 285.14 214.21 269.69
  Q 216.26 266.75 215.65 270.29
  Q 214.36 277.71 212.91 285.10
  C 212.23 288.62 213.25 291.74 217.24 291.75
  Q 228.00 291.76 238.75 291.86
  Q 243.51 291.90 244.43 287.19
  Q 249.88 259.17 255.38 231.11
  A 1.00 0.99 -85.6 0 1 256.32 230.30
  Q 265.64 229.97 275.29 230.72
  Q 280.32 231.11 279.30 236.51
  Q 273.14 269.38 270.13 284.59
  C 269.48 287.90 269.95 291.73 274.01 291.74
  Q 285.72 291.77 297.44 291.74
  Q 297.67 291.73 297.88 291.63
  Q 298.22 291.46 298.60 291.38
  A 1.00 1.00 0.0 0 1 299.81 292.54
  Q 297.68 303.53 295.56 314.51
  C 294.82 318.35 296.90 320.01 300.58 320.12
  Q 311.32 320.46 322.07 320.34
  Q 326.60 320.30 327.43 315.92
  Q 329.64 304.36 331.99 292.64
  A 1.00 1.00 0.0 0 1 332.96 291.84
  C 343.72 291.74 354.85 292.23 365.45 290.16
  C 388.21 285.71 403.65 266.26 405.54 243.58
  C 407.68 217.80 391.03 204.99 367.25 204.45
  Q 344.51 203.92 321.75 204.51
  C 318.30 204.60 316.62 205.65 316.08 209.07
  Q 315.67 211.65 313.21 223.25
  Q 312.46 226.78 311.65 223.26"
/>
<path stroke="#999999" vector-effect="non-scaling-stroke" d="
  M 256.56 208.69
  A 1.00 1.00 0.0 0 1 255.59 207.50
  L 260.72 181.19
  A 1.01 1.00 5.4 0 0 259.73 180.00
  L 238.43 180.01
  A 1.00 1.00 0.0 0 0 237.45 180.82
  L 216.96 286.31
  A 1.00 1.00 0.0 0 0 217.94 287.50
  L 239.19 287.50
  A 1.00 1.00 0.0 0 0 240.17 286.69
  L 251.83 226.91
  A 1.01 1.00 4.0 0 1 252.77 226.10
  Q 262.50 225.70 272.31 226.23
  C 279.24 226.60 284.22 227.68 283.57 235.78
  Q 283.30 239.16 282.75 242.00
  L 274.15 286.30
  A 1.01 1.01 0.0 0 0 275.13 287.50
  L 296.74 287.50
  A 1.00 1.00 0.0 0 0 297.72 286.69
  Q 301.76 266.08 305.71 245.45
  C 307.04 238.53 308.78 231.49 307.76 224.99
  C 305.60 211.34 289.95 208.76 278.49 208.77
  Q 267.43 208.78 256.56 208.69"
/>
<path stroke="#999999" vector-effect="non-scaling-stroke" d="
  M 209.31 216.19
  C 199.75 208.69 190.29 208.88 176.17 208.77
  Q 157.59 208.63 138.96 208.88
  A 1.01 1.00 -84.7 0 0 137.99 209.69
  L 117.56 314.81
  A 1.00 1.00 0.0 0 0 118.54 316.00
  L 140.02 316.00
  A 1.00 1.00 0.0 0 0 141.00 315.19
  L 146.20 288.21
  A 1.01 1.00 -83.2 0 1 147.22 287.40
  C 160.16 287.82 176.95 288.33 188.00 284.62
  C 204.26 279.15 216.05 264.11 218.62 247.27
  C 220.41 235.48 218.92 223.71 209.31 216.19"
/>
<path stroke="#999999" vector-effect="non-scaling-stroke" d="
  M 320.26 209.56
  L 299.83 314.81
  A 1.00 1.00 0.0 0 0 300.81 316.00
  L 322.29 316.00
  A 1.00 1.00 0.0 0 0 323.27 315.19
  L 328.44 288.40
  A 1.00 0.99 -84.3 0 1 329.41 287.59
  Q 339.80 287.50 350.19 287.41
  Q 361.52 287.31 368.68 285.15
  C 390.77 278.50 403.11 256.63 401.41 234.80
  C 400.01 216.77 383.63 208.77 367.25 208.76
  Q 344.15 208.73 321.24 208.75
  A 1.00 0.99 5.2 0 0 320.26 209.56"
/>
<path stroke="#999999" vector-effect="non-scaling-stroke" d="
  M 191.34 256.13
  C 195.14 247.54 198.85 228.79 184.73 226.68
  Q 173.97 225.06 159.09 225.87
  A 1.00 0.99 3.3 0 0 158.17 226.68
  L 149.98 269.01
  A 1.00 1.00 0.0 0 0 150.93 270.20
  C 166.63 270.72 184.21 272.23 191.34 256.13"
/>
<path stroke="#999999" vector-effect="non-scaling-stroke" d="
  M 350.43 270.17
  C 368.43 269.21 375.66 258.68 376.97 241.74
  C 377.93 229.18 370.46 226.67 359.45 225.98
  Q 350.37 225.42 341.39 225.87
  A 1.00 1.00 0.0 0 0 340.46 226.68
  L 332.19 269.02
  A 1.00 1.00 0.0 0 0 333.15 270.21
  Q 345.76 270.42 350.43 270.17"
/>
<path stroke="#999999" vector-effect="non-scaling-stroke" d="
  M 187.31 232.44
  C 180.58 228.92 170.24 229.90 162.73 230.03
  A 1.00 1.00 0.0 0 0 161.76 230.83
  L 155.15 264.67
  A 1.01 1.00 -82.6 0 0 156.06 265.86
  Q 165.95 266.64 173.92 265.17
  Q 183.08 263.49 186.93 255.69
  C 189.11 251.26 193.66 235.76 187.31 232.44"
/>
<path stroke="#999999" vector-effect="non-scaling-stroke" d="
  M 368.90 256.11
  C 372.52 248.84 377.50 232.04 364.41 230.63
  Q 354.57 229.57 344.92 230.10
  A 1.00 1.00 0.0 0 0 343.99 230.91
  L 337.42 264.77
  A 1.00 1.00 0.0 0 0 338.38 265.96
  Q 346.59 266.16 350.69 265.91
  C 358.10 265.46 365.39 263.18 368.90 256.11"
/>
</g>
<path fill="#333333" d="
  M 0.00 0.00
  L 512.00 0.00
  L 512.00 512.00
  L 0.00 512.00
  L 0.00 0.00
  Z
  M 459.79 255.99
  A 203.13 106.79 0.0 0 0 256.66 149.20
  A 203.13 106.79 0.0 0 0 53.53 255.99
  A 203.13 106.79 0.0 0 0 256.66 362.78
  A 203.13 106.79 0.0 0 0 459.79 255.99
  Z"
/>
<path fill="#ffffff" d="
  M 459.79 255.99
  A 203.13 106.79 0.0 0 1 256.66 362.78
  A 203.13 106.79 0.0 0 1 53.53 255.99
  A 203.13 106.79 0.0 0 1 256.66 149.20
  A 203.13 106.79 0.0 0 1 459.79 255.99
  Z
  M 452.06 255.99
  A 195.40 99.04 0.0 0 0 256.66 156.95
  A 195.40 99.04 0.0 0 0 61.26 255.99
  A 195.40 99.04 0.0 0 0 256.66 355.03
  A 195.40 99.04 0.0 0 0 452.06 255.99
  Z"
/>
<path fill="#333333" d="
  M 452.06 255.99
  A 195.40 99.04 0.0 0 1 256.66 355.03
  A 195.40 99.04 0.0 0 1 61.26 255.99
  A 195.40 99.04 0.0 0 1 256.66 156.95
  A 195.40 99.04 0.0 0 1 452.06 255.99
  Z
  M 311.65 223.26
  Q 308.54 209.81 294.02 206.36
  Q 287.83 204.89 278.48 204.55
  Q 270.29 204.25 261.91 204.20
  A 1.00 0.99 5.3 0 1 260.93 203.03
  Q 262.84 192.11 265.01 181.25
  C 265.70 177.75 263.25 176.02 259.92 176.01
  Q 249.26 175.99 238.57 176.00
  C 235.32 176.00 233.83 177.15 233.25 180.26
  Q 230.39 195.49 223.88 228.02
  Q 223.27 231.07 222.34 228.10
  Q 217.94 214.17 204.98 208.47
  C 195.12 204.14 186.32 204.48 172.32 204.27
  Q 154.78 204.02 138.19 204.52
  Q 134.68 204.62 134.01 208.07
  Q 123.61 261.27 113.33 314.32
  Q 112.34 319.46 117.00 320.01
  Q 122.18 320.62 140.19 320.15
  Q 144.39 320.04 145.17 315.66
  Q 145.87 311.75 149.73 292.64
  A 1.00 1.00 0.0 0 1 150.70 291.84
  C 161.54 291.68 175.77 292.39 184.78 290.03
  Q 203.41 285.14 214.21 269.69
  Q 216.26 266.75 215.65 270.29
  Q 214.36 277.71 212.91 285.10
  C 212.23 288.62 213.25 291.74 217.24 291.75
  Q 228.00 291.76 238.75 291.86
  Q 243.51 291.90 244.43 287.19
  Q 249.88 259.17 255.38 231.11
  A 1.00 0.99 -85.6 0 1 256.32 230.30
  Q 265.64 229.97 275.29 230.72
  Q 280.32 231.11 279.30 236.51
  Q 273.14 269.38 270.13 284.59
  C 269.48 287.90 269.95 291.73 274.01 291.74
  Q 285.72 291.77 297.44 291.74
  Q 297.67 291.73 297.88 291.63
  Q 298.22 291.46 298.60 291.38
  A 1.00 1.00 0.0 0 1 299.81 292.54
  Q 297.68 303.53 295.56 314.51
  C 294.82 318.35 296.90 320.01 300.58 320.12
  Q 311.32 320.46 322.07 320.34
  Q 326.60 320.30 327.43 315.92
  Q 329.64 304.36 331.99 292.64
  A 1.00 1.00 0.0 0 1 332.96 291.84
  C 343.72 291.74 354.85 292.23 365.45 290.16
  C 388.21 285.71 403.65 266.26 405.54 243.58
  C 407.68 217.80 391.03 204.99 367.25 204.45
  Q 344.51 203.92 321.75 204.51
  C 318.30 204.60 316.62 205.65 316.08 209.07
  Q 315.67 211.65 313.21 223.25
  Q 312.46 226.78 311.65 223.26
  Z"
/>
<path fill="#ffffff" d="
  M 313.21 223.25
  Q 315.67 211.65 316.08 209.07
  C 316.62 205.65 318.30 204.60 321.75 204.51
  Q 344.51 203.92 367.25 204.45
  C 391.03 204.99 407.68 217.80 405.54 243.58
  C 403.65 266.26 388.21 285.71 365.45 290.16
  C 354.85 292.23 343.72 291.74 332.96 291.84
  A 1.00 1.00 0.0 0 0 331.99 292.64
  Q 329.64 304.36 327.43 315.92
  Q 326.60 320.30 322.07 320.34
  Q 311.32 320.46 300.58 320.12
  C 296.90 320.01 294.82 318.35 295.56 314.51
  Q 297.68 303.53 299.81 292.54
  A 1.00 1.00 0.0 0 0 298.60 291.38
  Q 298.22 291.46 297.88 291.63
  Q 297.67 291.73 297.44 291.74
  Q 285.72 291.77 274.01 291.74
  C 269.95 291.73 269.48 287.90 270.13 284.59
  Q 273.14 269.38 279.30 236.51
  Q 280.32 231.11 275.29 230.72
  Q 265.64 229.97 256.32 230.30
  A 1.00 0.99 -85.6 0 0 255.38 231.11
  Q 249.88 259.17 244.43 287.19
  Q 243.51 291.90 238.75 291.86
  Q 228.00 291.76 217.24 291.75
  C 213.25 291.74 212.23 288.62 212.91 285.10
  Q 214.36 277.71 215.65 270.29
  Q 216.26 266.75 214.21 269.69
  Q 203.41 285.14 184.78 290.03
  C 175.77 292.39 161.54 291.68 150.70 291.84
  A 1.00 1.00 0.0 0 0 149.73 292.64
  Q 145.87 311.75 145.17 315.66
  Q 144.39 320.04 140.19 320.15
  Q 122.18 320.62 117.00 320.01
  Q 112.34 319.46 113.33 314.32
  Q 123.61 261.27 134.01 208.07
  Q 134.68 204.62 138.19 204.52
  Q 154.78 204.02 172.32 204.27
  C 186.32 204.48 195.12 204.14 204.98 208.47
  Q 217.94 214.17 222.34 228.10
  Q 223.27 231.07 223.88 228.02
  Q 230.39 195.49 233.25 180.26
  C 233.83 177.15 235.32 176.00 238.57 176.00
  Q 249.26 175.99 259.92 176.01
  C 263.25 176.02 265.70 177.75 265.01 181.25
  Q 262.84 192.11 260.93 203.03
  A 1.00 0.99 5.3 0 0 261.91 204.20
  Q 270.29 204.25 278.48 204.55
  Q 287.83 204.89 294.02 206.36
  Q 308.54 209.81 311.65 223.26
  Q 312.46 226.78 313.21 223.25
  Z
  M 256.56 208.69
  A 1.00 1.00 0.0 0 1 255.59 207.50
  L 260.72 181.19
  A 1.01 1.00 5.4 0 0 259.73 180.00
  L 238.43 180.01
  A 1.00 1.00 0.0 0 0 237.45 180.82
  L 216.96 286.31
  A 1.00 1.00 0.0 0 0 217.94 287.50
  L 239.19 287.50
  A 1.00 1.00 0.0 0 0 240.17 286.69
  L 251.83 226.91
  A 1.01 1.00 4.0 0 1 252.77 226.10
  Q 262.50 225.70 272.31 226.23
  C 279.24 226.60 284.22 227.68 283.57 235.78
  Q 283.30 239.16 282.75 242.00
  L 274.15 286.30
  A 1.01 1.01 0.0 0 0 275.13 287.50
  L 296.74 287.50
  A 1.00 1.00 0.0 0 0 297.72 286.69
  Q 301.76 266.08 305.71 245.45
  C 307.04 238.53 308.78 231.49 307.76 224.99
  C 305.60 211.34 289.95 208.76 278.49 208.77
  Q 267.43 208.78 256.56 208.69
  Z
  M 209.31 216.19
  C 199.75 208.69 190.29 208.88 176.17 208.77
  Q 157.59 208.63 138.96 208.88
  A 1.01 1.00 -84.7 0 0 137.99 209.69
  L 117.56 314.81
  A 1.00 1.00 0.0 0 0 118.54 316.00
  L 140.02 316.00
  A 1.00 1.00 0.0 0 0 141.00 315.19
  L 146.20 288.21
  A 1.01 1.00 -83.2 0 1 147.22 287.40
  C 160.16 287.82 176.95 288.33 188.00 284.62
  C 204.26 279.15 216.05 264.11 218.62 247.27
  C 220.41 235.48 218.92 223.71 209.31 216.19
  Z
  M 320.26 209.56
  L 299.83 314.81
  A 1.00 1.00 0.0 0 0 300.81 316.00
  L 322.29 316.00
  A 1.00 1.00 0.0 0 0 323.27 315.19
  L 328.44 288.40
  A 1.00 0.99 -84.3 0 1 329.41 287.59
  Q 339.80 287.50 350.19 287.41
  Q 361.52 287.31 368.68 285.15
  C 390.77 278.50 403.11 256.63 401.41 234.80
  C 400.01 216.77 383.63 208.77 367.25 208.76
  Q 344.15 208.73 321.24 208.75
  A 1.00 0.99 5.2 0 0 320.26 209.56
  Z"
/>
<path fill="#333333" d="
  M 256.56 208.69
  Q 267.43 208.78 278.49 208.77
  C 289.95 208.76 305.60 211.34 307.76 224.99
  C 308.78 231.49 307.04 238.53 305.71 245.45
  Q 301.76 266.08 297.72 286.69
  A 1.00 1.00 0.0 0 1 296.74 287.50
  L 275.13 287.50
  A 1.01 1.01 0.0 0 1 274.15 286.30
  L 282.75 242.00
  Q 283.30 239.16 283.57 235.78
  C 284.22 227.68 279.24 226.60 272.31 226.23
  Q 262.50 225.70 252.77 226.10
  A 1.01 1.00 4.0 0 0 251.83 226.91
  L 240.17 286.69
  A 1.00 1.00 0.0 0 1 239.19 287.50
  L 217.94 287.50
  A 1.00 1.00 0.0 0 1 216.96 286.31
  L 237.45 180.82
  A 1.00 1.00 0.0 0 1 238.43 180.01
  L 259.73 180.00
  A 1.01 1.00 5.4 0 1 260.72 181.19
  L 255.59 207.50
  A 1.00 1.00 0.0 0 0 256.56 208.69
  Z"
/>
<path fill="#333333" d="
  M 209.31 216.19
  C 218.92 223.71 220.41 235.48 218.62 247.27
  C 216.05 264.11 204.26 279.15 188.00 284.62
  C 176.95 288.33 160.16 287.82 147.22 287.40
  A 1.01 1.00 -83.2 0 0 146.20 288.21
  L 141.00 315.19
  A 1.00 1.00 0.0 0 1 140.02 316.00
  L 118.54 316.00
  A 1.00 1.00 0.0 0 1 117.56 314.81
  L 137.99 209.69
  A 1.01 1.00 -84.7 0 1 138.96 208.88
  Q 157.59 208.63 176.17 208.77
  C 190.29 208.88 199.75 208.69 209.31 216.19
  Z
  M 191.34 256.13
  C 195.14 247.54 198.85 228.79 184.73 226.68
  Q 173.97 225.06 159.09 225.87
  A 1.00 0.99 3.3 0 0 158.17 226.68
  L 149.98 269.01
  A 1.00 1.00 0.0 0 0 150.93 270.20
  C 166.63 270.72 184.21 272.23 191.34 256.13
  Z"
/>
<path fill="#333333" d="
  M 320.26 209.56
  A 1.00 0.99 5.2 0 1 321.24 208.75
  Q 344.15 208.73 367.25 208.76
  C 383.63 208.77 400.01 216.77 401.41 234.80
  C 403.11 256.63 390.77 278.50 368.68 285.15
  Q 361.52 287.31 350.19 287.41
  Q 339.80 287.50 329.41 287.59
  A 1.00 0.99 -84.3 0 0 328.44 288.40
  L 323.27 315.19
  A 1.00 1.00 0.0 0 1 322.29 316.00
  L 300.81 316.00
  A 1.00 1.00 0.0 0 1 299.83 314.81
  L 320.26 209.56
  Z
  M 350.43 270.17
  C 368.43 269.21 375.66 258.68 376.97 241.74
  C 377.93 229.18 370.46 226.67 359.45 225.98
  Q 350.37 225.42 341.39 225.87
  A 1.00 1.00 0.0 0 0 340.46 226.68
  L 332.19 269.02
  A 1.00 1.00 0.0 0 0 333.15 270.21
  Q 345.76 270.42 350.43 270.17
  Z"
/>
<path fill="#ffffff" d="
  M 184.73 226.68
  C 198.85 228.79 195.14 247.54 191.34 256.13
  C 184.21 272.23 166.63 270.72 150.93 270.20
  A 1.00 1.00 0.0 0 1 149.98 269.01
  L 158.17 226.68
  A 1.00 0.99 3.3 0 1 159.09 225.87
  Q 173.97 225.06 184.73 226.68
  Z
  M 187.31 232.44
  C 180.58 228.92 170.24 229.90 162.73 230.03
  A 1.00 1.00 0.0 0 0 161.76 230.83
  L 155.15 264.67
  A 1.01 1.00 -82.6 0 0 156.06 265.86
  Q 165.95 266.64 173.92 265.17
  Q 183.08 263.49 186.93 255.69
  C 189.11 251.26 193.66 235.76 187.31 232.44
  Z"
/>
<path fill="#ffffff" d="
  M 376.97 241.74
  C 375.66 258.68 368.43 269.21 350.43 270.17
  Q 345.76 270.42 333.15 270.21
  A 1.00 1.00 0.0 0 1 332.19 269.02
  L 340.46 226.68
  A 1.00 1.00 0.0 0 1 341.39 225.87
  Q 350.37 225.42 359.45 225.98
  C 370.46 226.67 377.93 229.18 376.97 241.74
  Z
  M 368.90 256.11
  C 372.52 248.84 377.50 232.04 364.41 230.63
  Q 354.57 229.57 344.92 230.10
  A 1.00 1.00 0.0 0 0 343.99 230.91
  L 337.42 264.77
  A 1.00 1.00 0.0 0 0 338.38 265.96
  Q 346.59 266.16 350.69 265.91
  C 358.10 265.46 365.39 263.18 368.90 256.11
  Z"
/>
<path fill="#333333" d="
  M 187.31 232.44
  C 193.66 235.76 189.11 251.26 186.93 255.69
  Q 183.08 263.49 173.92 265.17
  Q 165.95 266.64 156.06 265.86
  A 1.01 1.00 -82.6 0 1 155.15 264.67
  L 161.76 230.83
  A 1.00 1.00 0.0 0 1 162.73 230.03
  C 170.24 229.90 180.58 228.92 187.31 232.44
  Z"
/>
<path fill="#333333" d="
  M 368.90 256.11
  C 365.39 263.18 358.10 265.46 350.69 265.91
  Q 346.59 266.16 338.38 265.96
  A 1.00 1.00 0.0 0 1 337.42 264.77
  L 343.99 230.91
  A 1.00 1.00 0.0 0 1 344.92 230.10
  Q 354.57 229.57 364.41 230.63
  C 377.50 232.04 372.52 248.84 368.90 256.11
  Z"
/>
</svg>
