<?xml version="1.0" encoding="UTF-8" standalone="no"?>
<!DOCTYPE svg PUBLIC "-//W3C//DTD SVG 1.1//EN" "http://www.w3.org/Graphics/SVG/1.1/DTD/svg11.dtd">
<svg xmlns="http://www.w3.org/2000/svg" version="1.1" viewBox="0 0 512 512">
<g stroke-width="1.80" fill="none" stroke-linecap="butt">
<path stroke="#999999" vector-effect="non-scaling-stroke" d="
  M 256.00 149.25
  L 256.00 159.78
  A 1.00 1.00 0.0 0 1 255.00 160.78
  Q 192.60 160.66 130.16 160.84
  C 95.86 160.94 76.15 178.43 67.96 210.80
  C 61.27 237.26 60.00 262.82 65.54 289.50
  C 71.63 318.86 82.07 350.38 118.50 350.50
  Q 133.69 350.54 148.99 350.47
  A 1.00 1.00 0.0 0 0 149.98 349.47
  Q 149.98 333.51 150.02 317.56
  Q 150.06 303.38 151.18 297.64
  C 155.79 274.07 175.01 255.25 198.32 250.68
  Q 204.50 249.47 218.24 249.49
  Q 260.22 249.55 302.18 249.43
  C 323.52 249.37 341.95 235.08 347.32 214.79
  Q 348.93 208.70 349.06 195.07
  Q 349.41 156.14 349.00 117.22
  Q 348.89 106.46 347.39 101.05
  C 343.06 85.41 329.68 73.37 314.84 67.78
  Q 307.98 65.20 295.38 63.44
  Q 252.75 57.50 210.01 64.32
  C 182.65 68.68 162.91 77.56 162.31 109.08
  Q 162.11 119.84 162.29 147.26
  A 1.00 1.00 0.0 0 0 163.29 148.25
  L 255.00 148.25
  A 1.00 1.00 0.0 0 1 256.00 149.25"
/>
<path stroke="#999999" vector-effect="non-scaling-stroke" d="
  M 255.50 362.00
  L 255.50 351.49
  A 1.00 1.00 0.0 0 1 256.50 350.49
  Q 322.47 350.53 388.44 350.47
  Q 403.03 350.46 408.29 348.97
  C 419.73 345.73 428.19 337.05 433.47 326.45
  Q 442.84 307.62 447.49 285.49
  C 452.32 262.49 449.56 239.10 444.49 215.51
  C 439.56 192.55 429.28 162.87 401.42 161.10
  Q 390.76 160.42 362.24 160.80
  A 0.99 0.99 0.0 0 0 361.26 161.80
  Q 361.36 181.06 361.14 200.32
  Q 361.03 209.83 359.62 215.56
  C 354.20 237.57 336.46 255.55 314.16 260.44
  Q 307.92 261.80 294.26 261.76
  Q 252.82 261.63 211.38 261.92
  Q 202.85 261.98 197.75 263.33
  C 176.38 268.96 162.23 288.62 162.23 310.50
  Q 162.23 350.82 162.25 391.17
  Q 162.26 403.12 163.73 408.61
  C 170.62 434.37 200.24 444.28 223.21 449.40
  C 253.22 456.08 284.08 453.00 313.24 441.99
  C 328.48 436.24 343.06 425.67 347.54 409.63
  Q 348.99 404.47 349.00 394.21
  Q 349.03 379.13 348.96 364.00
  A 1.01 1.00 89.7 0 0 347.96 363.00
  L 256.50 363.00
  A 1.00 1.00 0.0 0 1 255.50 362.00"
/>
<path stroke="#999999" vector-effect="non-scaling-stroke" d="
  M 220.89 106.92
  A 17.91 17.91 0.0 0 0 202.98 89.01
  A 17.91 17.91 0.0 0 0 185.07 106.92
  A 17.91 17.91 0.0 0 0 202.98 124.83
  A 17.91 17.91 0.0 0 0 220.89 106.92"
/>
<path stroke="#999999" vector-effect="non-scaling-stroke" d="
  M 308.1996 422.4087
  A 18.04 17.75 90.7 0 0 326.1687 404.5869
  A 18.04 17.75 90.7 0 0 308.6404 386.3313
  A 18.04 17.75 90.7 0 0 290.6713 404.1531
  A 18.04 17.75 90.7 0 0 308.1996 422.4087"
/>
</g>
<path fill="#333333" d="
  M 0.00 0.00
  L 512.00 0.00
  L 512.00 512.00
  L 0.00 512.00
  L 0.00 0.00
  Z
  M 256.00 149.25
  L 256.00 159.78
  A 1.00 1.00 0.0 0 1 255.00 160.78
  Q 192.60 160.66 130.16 160.84
  C 95.86 160.94 76.15 178.43 67.96 210.80
  C 61.27 237.26 60.00 262.82 65.54 289.50
  C 71.63 318.86 82.07 350.38 118.50 350.50
  Q 133.69 350.54 148.99 350.47
  A 1.00 1.00 0.0 0 0 149.98 349.47
  Q 149.98 333.51 150.02 317.56
  Q 150.06 303.38 151.18 297.64
  C 155.79 274.07 175.01 255.25 198.32 250.68
  Q 204.50 249.47 218.24 249.49
  Q 260.22 249.55 302.18 249.43
  C 323.52 249.37 341.95 235.08 347.32 214.79
  Q 348.93 208.70 349.06 195.07
  Q 349.41 156.14 349.00 117.22
  Q 348.89 106.46 347.39 101.05
  C 343.06 85.41 329.68 73.37 314.84 67.78
  Q 307.98 65.20 295.38 63.44
  Q 252.75 57.50 210.01 64.32
  C 182.65 68.68 162.91 77.56 162.31 109.08
  Q 162.11 119.84 162.29 147.26
  A 1.00 1.00 0.0 0 0 163.29 148.25
  L 255.00 148.25
  A 1.00 1.00 0.0 0 1 256.00 149.25
  Z
  M 255.50 362.00
  L 255.50 351.49
  A 1.00 1.00 0.0 0 1 256.50 350.49
  Q 322.47 350.53 388.44 350.47
  Q 403.03 350.46 408.29 348.97
  C 419.73 345.73 428.19 337.05 433.47 326.45
  Q 442.84 307.62 447.49 285.49
  C 452.32 262.49 449.56 239.10 444.49 215.51
  C 439.56 192.55 429.28 162.87 401.42 161.10
  Q 390.76 160.42 362.24 160.80
  A 0.99 0.99 0.0 0 0 361.26 161.80
  Q 361.36 181.06 361.14 200.32
  Q 361.03 209.83 359.62 215.56
  C 354.20 237.57 336.46 255.55 314.16 260.44
  Q 307.92 261.80 294.26 261.76
  Q 252.82 261.63 211.38 261.92
  Q 202.85 261.98 197.75 263.33
  C 176.38 268.96 162.23 288.62 162.23 310.50
  Q 162.23 350.82 162.25 391.17
  Q 162.26 403.12 163.73 408.61
  C 170.62 434.37 200.24 444.28 223.21 449.40
  C 253.22 456.08 284.08 453.00 313.24 441.99
  C 328.48 436.24 343.06 425.67 347.54 409.63
  Q 348.99 404.47 349.00 394.21
  Q 349.03 379.13 348.96 364.00
  A 1.01 1.00 89.7 0 0 347.96 363.00
  L 256.50 363.00
  A 1.00 1.00 0.0 0 1 255.50 362.00
  Z"
/>
<path fill="#ffffff" d="
  M 256.00 149.25
  A 1.00 1.00 0.0 0 0 255.00 148.25
  L 163.29 148.25
  A 1.00 1.00 0.0 0 1 162.29 147.26
  Q 162.11 119.84 162.31 109.08
  C 162.91 77.56 182.65 68.68 210.01 64.32
  Q 252.75 57.50 295.38 63.44
  Q 307.98 65.20 314.84 67.78
  C 329.68 73.37 343.06 85.41 347.39 101.05
  Q 348.89 106.46 349.00 117.22
  Q 349.41 156.14 349.06 195.07
  Q 348.93 208.70 347.32 214.79
  C 341.95 235.08 323.52 249.37 302.18 249.43
  Q 260.22 249.55 218.24 249.49
  Q 204.50 249.47 198.32 250.68
  C 175.01 255.25 155.79 274.07 151.18 297.64
  Q 150.06 303.38 150.02 317.56
  Q 149.98 333.51 149.98 349.47
  A 1.00 1.00 0.0 0 1 148.99 350.47
  Q 133.69 350.54 118.50 350.50
  C 82.07 350.38 71.63 318.86 65.54 289.50
  C 60.00 262.82 61.27 237.26 67.96 210.80
  C 76.15 178.43 95.86 160.94 130.16 160.84
  Q 192.60 160.66 255.00 160.78
  A 1.00 1.00 0.0 0 0 256.00 159.78
  L 256.00 149.25
  Z
  M 220.89 106.92
  A 17.91 17.91 0.0 0 0 202.98 89.01
  A 17.91 17.91 0.0 0 0 185.07 106.92
  A 17.91 17.91 0.0 0 0 202.98 124.83
  A 17.91 17.91 0.0 0 0 220.89 106.92
  Z"
/>
<circle fill="#333333" cx="202.98" cy="106.92" r="17.91"/>
<path fill="#ffffff" d="
  M 255.50 362.00
  A 1.00 1.00 0.0 0 0 256.50 363.00
  L 347.96 363.00
  A 1.01 1.00 89.7 0 1 348.96 364.00
  Q 349.03 379.13 349.00 394.21
  Q 348.99 404.47 347.54 409.63
  C 343.06 425.67 328.48 436.24 313.24 441.99
  C 284.08 453.00 253.22 456.08 223.21 449.40
  C 200.24 444.28 170.62 434.37 163.73 408.61
  Q 162.26 403.12 162.25 391.17
  Q 162.23 350.82 162.23 310.50
  C 162.23 288.62 176.38 268.96 197.75 263.33
  Q 202.85 261.98 211.38 261.92
  Q 252.82 261.63 294.26 261.76
  Q 307.92 261.80 314.16 260.44
  C 336.46 255.55 354.20 237.57 359.62 215.56
  Q 361.03 209.83 361.14 200.32
  Q 361.36 181.06 361.26 161.80
  A 0.99 0.99 0.0 0 1 362.24 160.80
  Q 390.76 160.42 401.42 161.10
  C 429.28 162.87 439.56 192.55 444.49 215.51
  C 449.56 239.10 452.32 262.49 447.49 285.49
  Q 442.84 307.62 433.47 326.45
  C 428.19 337.05 419.73 345.73 408.29 348.97
  Q 403.03 350.46 388.44 350.47
  Q 322.47 350.53 256.50 350.49
  A 1.00 1.00 0.0 0 0 255.50 351.49
  L 255.50 362.00
  Z
  M 308.1996 422.4087
  A 18.04 17.75 90.7 0 0 326.1687 404.5869
  A 18.04 17.75 90.7 0 0 308.6404 386.3313
  A 18.04 17.75 90.7 0 0 290.6713 404.1531
  A 18.04 17.75 90.7 0 0 308.1996 422.4087
  Z"
/>
<ellipse fill="#333333" cx="0.00" cy="0.00" transform="translate(308.42,404.37) rotate(90.7)" rx="18.04" ry="17.75"/>
</svg>
