<?xml version="1.0" encoding="UTF-8" standalone="no"?>
<!DOCTYPE svg PUBLIC "-//W3C//DTD SVG 1.1//EN" "http://www.w3.org/Graphics/SVG/1.1/DTD/svg11.dtd">
<svg xmlns="http://www.w3.org/2000/svg" version="1.1" viewBox="0 0 448 448">
<path fill="#333333" d="
  M 0.00 0.00
  L 448.00 0.00
  L 448.00 448.00
  L 0.00 448.00
  L 0.00 0.00
  Z
  M 105.37 224.61
  C 92.36 239.91 80.55 253.49 72.53 272.26
  Q 68.17 282.44 67.77 289.49
  C 64.75 342.33 133.73 334.31 164.31 325.82
  A 1.00 1.00 0.0 0 1 165.55 326.55
  C 171.82 352.68 194.13 405.37 229.97 398.66
  C 258.82 393.27 276.26 351.24 282.54 326.62
  A 1.00 0.99 14.9 0 1 283.77 325.91
  C 305.13 331.72 330.50 334.93 351.76 329.02
  C 369.76 324.02 381.30 311.20 380.22 291.48
  C 379.31 275.00 369.66 257.76 359.39 244.62
  Q 351.32 234.29 342.40 224.65
  A 1.01 1.01 0.0 0 1 342.42 223.27
  Q 347.93 217.62 353.12 211.62
  C 367.36 195.16 384.95 167.76 378.93 144.54
  C 369.19 106.93 311.60 114.64 285.48 121.80
  Q 282.50 122.62 281.72 119.62
  Q 275.29 94.95 262.34 74.69
  C 249.46 54.54 228.15 39.81 204.49 54.79
  C 183.36 68.18 172.68 98.25 165.31 121.54
  A 1.00 0.99 16.1 0 1 164.10 122.20
  C 139.65 115.74 99.03 109.10 78.35 128.70
  C 55.95 149.95 74.29 186.02 89.85 205.42
  Q 95.06 211.91 105.35 223.29
  A 1.00 1.00 0.0 0 1 105.37 224.61
  Z"
/>
<path fill="#333333" d="
  M 204.55 74.11
  C 223.91 52.94 242.20 68.21 252.65 87.14
  Q 262.20 104.43 267.85 125.53
  A 0.99 0.99 0.0 0 1 267.20 126.73
  Q 249.40 132.63 231.78 140.25
  C 228.16 141.82 225.37 144.26 221.19 142.40
  Q 201.19 133.46 180.73 126.75
  A 1.00 1.00 0.0 0 1 180.08 125.54
  C 184.66 108.43 192.59 87.20 204.55 74.11
  Z"
/>
<path fill="#333333" d="
  M 160.50 136.70
  A 1.01 1.00 14.0 0 1 161.21 137.87
  Q 156.46 160.50 154.37 183.54
  A 1.00 0.97 75.8 0 1 153.95 184.27
  Q 135.47 197.18 118.72 212.21
  Q 117.12 213.65 115.62 212.08
  Q 105.13 201.12 96.07 187.97
  C 80.37 165.20 71.24 133.44 112.20 131.19
  Q 136.55 129.86 160.50 136.70
  Z"
/>
<path fill="#333333" d="
  M 332.49 211.97
  Q 330.91 213.71 329.14 212.12
  Q 312.55 197.26 294.33 184.44
  A 1.04 1.00 -79.9 0 1 293.93 183.84
  Q 293.48 181.83 292.76 175.25
  Q 290.69 156.27 286.72 137.88
  A 1.00 0.99 -14.3 0 1 287.42 136.71
  C 305.02 131.64 354.31 123.28 363.74 145.10
  C 372.78 166.01 345.52 197.61 332.49 211.97
  Z"
/>
<path fill="#333333" d="
  M 243.05 153.10
  Q 241.06 152.06 243.16 151.28
  L 270.95 140.94
  A 1.00 0.99 74.8 0 1 272.28 141.71
  L 277.18 169.71
  Q 277.80 173.25 274.70 171.30
  Q 259.22 161.59 243.05 153.10
  Z"
/>
<path fill="#333333" d="
  M 204.69 151.32
  Q 206.63 152.13 204.78 153.13
  Q 188.45 161.86 172.73 171.63
  Q 171.03 172.68 171.20 170.69
  Q 171.71 164.91 172.55 158.94
  C 173.06 155.30 173.62 147.62 175.51 143.98
  C 177.29 140.54 180.93 142.04 184.39 143.32
  Q 194.62 147.12 204.69 151.32
  Z"
/>
<path fill="#333333" d="
  M 224.50 160.21
  C 243.20 169.39 261.26 179.80 278.61 191.33
  A 1.04 1.02 12.2 0 1 279.04 191.98
  Q 279.93 196.67 279.95 200.06
  C 280.03 218.27 281.12 237.60 279.26 255.67
  A 0.98 0.96 -14.7 0 1 278.83 256.39
  Q 252.81 274.11 224.44 287.75
  A 1.01 0.99 -44.3 0 1 223.57 287.75
  Q 196.31 274.47 171.12 257.83
  C 168.47 256.08 168.37 254.73 168.31 251.75
  C 167.87 232.25 166.93 211.60 168.76 192.20
  A 1.01 1.00 76.4 0 1 169.20 191.47
  Q 195.36 174.01 223.63 160.21
  A 1.01 0.99 -44.3 0 1 224.50 160.21
  Z
  M 228.5699 255.0829
  A 31.42 31.37 81.6 0 0 255.0135 219.4174
  A 31.42 31.37 81.6 0 0 219.3901 192.9171
  A 31.42 31.37 81.6 0 0 192.9465 228.5826
  A 31.42 31.37 81.6 0 0 228.5699 255.0829
  Z"
/>
<path fill="#333333" d="
  M 129.46 225.30
  A 1.89 1.88 26.2 0 1 128.87 223.58
  C 129.22 221.53 148.76 206.40 151.39 204.41
  Q 152.99 203.20 152.99 205.21
  L 153.00 242.89
  Q 153.00 244.92 151.39 243.69
  Q 140.01 234.98 129.46 225.30
  Z"
/>
<path fill="#333333" d="
  M 295.01 205.16
  Q 295.01 203.14 296.62 204.36
  Q 308.31 213.24 319.03 223.28
  A 1.00 1.00 0.0 0 1 319.03 224.74
  Q 308.33 234.76 296.59 243.53
  Q 295.00 244.73 295.00 242.73
  L 295.01 205.16
  Z"
/>
<circle fill="#333333" cx="223.95" cy="224.01" r="16.56"/>
<path fill="#333333" d="
  M 117.91 235.04
  C 129.43 245.39 141.41 254.98 154.11 263.84
  A 1.01 1.00 15.0 0 1 154.54 264.58
  Q 156.35 287.57 161.26 310.10
  A 1.00 0.99 -14.3 0 1 160.56 311.27
  C 142.83 316.36 115.61 320.93 98.14 313.97
  C 59.44 298.56 102.95 249.60 116.52 235.10
  A 1.00 0.99 42.3 0 1 117.91 235.04
  Z"
/>
<path fill="#333333" d="
  M 287.35 311.31
  A 1.00 0.99 -75.8 0 1 286.66 310.15
  Q 291.54 287.54 293.57 264.51
  A 1.01 1.00 -15.0 0 1 294.00 263.77
  Q 312.99 250.58 330.10 235.03
  A 1.01 1.00 -42.7 0 1 331.50 235.08
  C 344.58 248.75 357.83 265.11 363.67 283.31
  C 378.12 328.34 307.96 317.52 287.35 311.31
  Z"
/>
<path fill="#333333" d="
  M 252.53 300.28
  Q 248.19 298.55 243.76 296.69
  Q 241.91 295.91 243.65 294.90
  L 275.39 276.51
  Q 277.09 275.52 276.88 277.47
  Q 275.64 289.42 273.47 301.22
  C 271.71 310.76 257.42 302.22 252.53 300.28
  Z"
/>
<path fill="#333333" d="
  M 204.64 294.99
  Q 206.40 296.01 204.51 296.78
  Q 191.03 302.29 177.17 306.82
  A 1.00 1.00 0.0 0 1 175.88 306.08
  Q 172.84 291.78 170.87 277.29
  Q 170.60 275.26 172.36 276.29
  L 204.64 294.99
  Z"
/>
<path fill="#333333" d="
  M 267.24 321.23
  A 1.00 0.99 -73.6 0 1 267.89 322.43
  Q 263.06 341.05 254.25 358.15
  Q 247.89 370.49 239.09 378.07
  C 228.96 386.79 215.98 385.41 206.81 376.18
  C 193.33 362.62 184.85 340.78 180.09 322.38
  A 1.01 1.00 -16.0 0 1 180.76 321.18
  Q 201.62 314.49 221.52 305.28
  Q 223.89 304.19 226.25 305.25
  Q 246.34 314.29 267.24 321.23
  Z"
/>
</svg>
