<?xml version="1.0" encoding="UTF-8" standalone="no"?>
<!DOCTYPE svg PUBLIC "-//W3C//DTD SVG 1.1//EN" "http://www.w3.org/Graphics/SVG/1.1/DTD/svg11.dtd">
<svg xmlns="http://www.w3.org/2000/svg" version="1.1" viewBox="0 0 1448 1448">
<g stroke-width="1.80" fill="none" stroke-linecap="butt">
<path stroke="#999999" vector-effect="non-scaling-stroke" d="
  M 198.75 985.28
  C 198.76 1053.51 324.88 1081.78 374.22 1090.91
  Q 455.68 1105.98 538.48 1108.89
  C 541.41 1108.99 544.82 1109.65 548.03 1109.68
  A 1.01 1.01 0.0 0 1 549.02 1110.69
  Q 548.92 1152.86 549.08 1195.68
  C 549.19 1223.19 565.70 1243.05 592.33 1249.02
  C 599.19 1250.56 608.79 1250.00 615.47 1250.00
  Q 894.86 1250.01 1174.25 1249.99
  C 1180.64 1249.99 1188.76 1249.64 1196.02 1249.72
  C 1222.29 1249.98 1242.33 1234.06 1248.67 1208.57
  C 1250.73 1200.26 1249.92 1190.66 1249.93 1182.00
  Q 1250.04 1018.39 1249.98 854.77
  C 1249.97 845.44 1249.61 832.88 1249.75 821.91
  Q 1249.92 808.16 1249.09 803.25
  C 1244.27 774.80 1221.58 759.07 1193.35 759.45
  C 1191.62 759.48 1189.66 758.75 1188.25 758.75
  Q 1079.66 758.75 971.24 758.75
  A 1.00 1.00 0.0 0 1 970.24 757.75
  Q 970.28 558.53 970.05 359.31
  Q 970.03 340.52 969.43 321.75
  C 968.71 299.33 956.08 282.57 938.80 269.70
  C 917.30 253.70 891.65 242.80 866.22 234.84
  Q 828.76 223.10 790.11 216.41
  C 745.36 208.66 700.60 203.02 655.75 200.51
  Q 542.24 194.17 428.49 208.40
  C 383.95 213.98 339.12 222.29 296.48 236.56
  C 259.77 248.85 198.76 275.91 198.75 322.87
  Q 198.74 654.07 198.75 985.28"
/>
<path stroke="#999999" vector-effect="non-scaling-stroke" d="
  M 239.30 309.56
  C 219.92 335.75 268.35 355.63 284.49 362.29
  C 325.92 379.40 370.95 390.43 414.00 396.74
  Q 490.10 407.89 571.43 409.04
  C 659.70 410.27 748.68 401.72 834.21 379.36
  C 851.77 374.77 953.91 344.43 931.06 311.67
  C 919.66 295.34 897.31 285.51 878.21 278.09
  C 832.66 260.40 784.61 249.84 736.20 243.88
  C 664.54 235.07 591.70 231.99 520.69 235.92
  C 449.78 239.84 380.24 248.20 312.95 269.66
  C 293.16 275.98 273.25 283.67 255.61 294.79
  Q 245.52 301.16 239.30 309.56"
/>
<path stroke="#999999" vector-effect="non-scaling-stroke" d="
  M 234.77 551.99
  C 236.42 567.52 267.55 583.26 281.37 588.95
  Q 326.06 607.36 373.58 616.61
  C 501.88 641.61 633.97 642.66 762.99 622.45
  Q 808.77 615.27 853.02 601.58
  C 875.78 594.53 898.53 585.80 917.97 571.77
  C 934.54 559.81 934.70 548.80 934.73 529.75
  Q 934.85 456.25 934.55 382.75
  Q 934.54 380.31 934.15 378.17
  A 1.00 1.00 0.0 0 0 932.64 377.50
  Q 915.05 388.47 895.85 396.21
  Q 846.89 415.95 794.94 425.44
  C 667.21 448.77 536.16 450.08 407.76 431.46
  C 348.37 422.85 288.14 409.55 236.54 377.93
  Q 233.77 376.24 233.77 379.49
  Q 233.72 459.61 233.77 539.90
  C 233.77 543.90 234.34 548.00 234.77 551.99"
/>
<path stroke="#999999" vector-effect="non-scaling-stroke" d="
  M 234.25 775.23
  C 237.18 794.04 254.65 804.46 270.31 811.72
  C 322.21 835.79 378.98 848.21 437.00 855.01
  Q 492.38 861.50 537.43 863.20
  Q 543.05 863.42 548.11 863.20
  A 1.00 1.00 0.0 0 0 549.07 862.20
  Q 548.81 836.24 549.21 811.00
  Q 549.31 804.62 551.67 796.62
  C 558.20 774.46 575.93 761.27 599.28 759.78
  C 607.29 759.27 615.12 758.75 623.25 758.75
  Q 778.32 758.75 931.91 758.75
  Q 935.04 758.75 934.88 755.63
  Q 934.42 746.54 934.54 737.53
  C 935.14 694.27 934.80 650.93 934.63 607.65
  Q 934.61 604.01 931.52 605.93
  C 904.69 622.58 874.76 633.97 843.93 642.16
  Q 794.01 655.41 742.76 661.86
  C 623.04 676.92 501.09 675.29 382.07 654.96
  Q 335.16 646.95 290.17 631.22
  Q 261.27 621.12 235.28 604.94
  Q 233.75 603.98 233.75 605.79
  L 233.75 768.75
  Q 233.75 771.96 234.25 775.23"
/>
<path stroke="#999999" vector-effect="non-scaling-stroke" d="
  M 584.49 1193.51
  C 584.49 1208.96 591.89 1214.75 606.50 1214.76
  Q 896.92 1215.00 1187.33 1215.00
  C 1199.06 1215.00 1209.18 1214.67 1213.41 1203.32
  Q 1215.00 1199.05 1215.00 1185.99
  Q 1215.01 1003.78 1214.99 821.57
  C 1214.99 809.73 1214.47 800.42 1203.08 796.10
  Q 1199.51 794.75 1192.73 794.75
  Q 900.39 794.75 608.06 794.75
  Q 599.39 794.75 595.63 796.23
  C 587.16 799.57 584.50 806.65 584.50 815.58
  Q 584.51 1004.54 584.49 1193.51"
/>
<path stroke="#999999" vector-effect="non-scaling-stroke" d="
  M 256.65 1014.62
  C 277.34 1026.68 300.70 1035.50 323.59 1042.35
  Q 355.34 1051.85 387.98 1057.62
  Q 456.77 1069.76 526.56 1072.73
  Q 526.90 1072.75 527.29 1073.00
  A 0.95 0.92 -26.5 0 0 527.83 1073.17
  L 546.76 1073.51
  Q 549.00 1073.55 549.00 1071.44
  L 549.00 900.18
  A 1.00 1.00 0.0 0 0 548.06 899.18
  Q 540.04 898.74 531.94 898.44
  Q 441.77 895.18 353.53 876.84
  C 311.12 868.03 271.56 855.38 236.45 833.56
  Q 233.76 831.89 233.76 835.05
  Q 233.73 907.78 233.76 980.50
  C 233.76 995.79 244.00 1007.26 256.65 1014.62"
/>
<path stroke="#999999" vector-effect="non-scaling-stroke" d="
  M 664.43 915.42
  C 636.85 962.34 668.21 1019.29 721.77 1022.36
  C 735.03 1023.12 745.30 1026.45 752.76 1037.99
  C 767.75 1061.17 753.59 1090.23 726.00 1091.71
  C 707.78 1092.69 692.02 1078.94 689.87 1060.85
  Q 689.04 1053.88 688.48 1052.28
  C 683.40 1037.72 663.52 1034.33 656.48 1049.00
  Q 654.38 1053.40 654.43 1060.48
  C 654.64 1090.51 677.60 1117.36 705.77 1124.95
  C 743.22 1135.04 783.11 1111.88 792.70 1074.47
  C 797.03 1057.56 794.40 1038.77 785.93 1023.51
  Q 769.49 993.91 733.96 987.69
  C 728.25 986.69 720.28 986.75 714.75 985.27
  C 693.86 979.68 684.72 956.29 693.12 937.11
  C 705.91 907.91 747.03 912.39 757.11 941.36
  C 758.71 945.95 759.08 952.90 760.59 957.14
  C 764.04 966.81 773.50 972.80 783.48 968.44
  C 792.11 964.66 795.23 955.06 794.09 946.18
  C 789.97 914.05 767.36 886.96 734.43 882.55
  C 706.84 878.86 678.86 890.87 664.43 915.42"
/>
<path stroke="#999999" vector-effect="non-scaling-stroke" d="
  M 830.30 1067.18
  C 836.80 1116.60 890.78 1141.75 934.30 1118.06
  A 1.02 1.01 -35.5 0 1 935.52 1118.26
  Q 939.26 1122.32 940.17 1123.07
  C 959.07 1138.43 983.19 1108.76 960.50 1093.56
  A 1.00 1.00 0.0 0 1 960.19 1092.23
  C 969.07 1076.81 969.83 1063.52 970.02 1044.50
  Q 970.42 1005.75 969.79 967.00
  C 969.62 956.14 969.66 943.76 967.12 934.17
  C 947.51 860.02 837.68 867.16 830.22 944.40
  Q 829.50 951.84 829.47 954.75
  Q 829.03 1000.72 829.35 1046.69
  Q 829.45 1060.74 830.30 1067.18"
/>
<path stroke="#999999" vector-effect="non-scaling-stroke" d="
  M 1039.86 1090.98
  A 1.01 1.00 20.9 0 1 1039.52 1090.23
  Q 1039.49 996.04 1039.50 901.72
  C 1039.51 877.71 1007.20 874.23 1004.95 897.89
  C 1004.66 900.99 1004.27 903.69 1004.26 906.00
  Q 1004.17 953.00 1004.29 1107.69
  C 1004.30 1118.71 1011.31 1127.24 1022.51 1127.25
  Q 1072.34 1127.27 1122.15 1127.23
  Q 1130.85 1127.22 1134.52 1125.72
  C 1151.18 1118.90 1146.37 1092.46 1128.00 1092.46
  Q 1085.47 1092.46 1042.95 1092.25
  C 1041.35 1092.24 1041.00 1091.98 1039.86 1090.98"
/>
<path stroke="#999999" vector-effect="non-scaling-stroke" d="
  M 878.44 1084.31
  Q 890.17 1093.94 905.24 1090.95
  Q 906.95 1090.61 905.80 1089.30
  Q 903.49 1086.70 901.79 1083.52
  C 892.01 1065.26 916.43 1047.67 931.04 1063.48
  Q 933.39 1066.02 933.61 1062.57
  C 935.33 1035.96 934.20 1008.73 934.63 982.00
  Q 934.93 963.89 934.05 950.45
  C 931.44 910.87 876.30 905.39 866.30 943.40
  Q 864.79 949.17 864.76 962.29
  Q 864.68 1004.72 864.81 1047.21
  C 864.86 1064.22 865.88 1074.01 878.44 1084.31"
/>
</g>
<path fill="#333333" d="
  M 0.00 0.00
  L 1448.00 0.00
  L 1448.00 1448.00
  L 0.00 1448.00
  L 0.00 0.00
  Z
  M 198.75 985.28
  C 198.76 1053.51 324.88 1081.78 374.22 1090.91
  Q 455.68 1105.98 538.48 1108.89
  C 541.41 1108.99 544.82 1109.65 548.03 1109.68
  A 1.01 1.01 0.0 0 1 549.02 1110.69
  Q 548.92 1152.86 549.08 1195.68
  C 549.19 1223.19 565.70 1243.05 592.33 1249.02
  C 599.19 1250.56 608.79 1250.00 615.47 1250.00
  Q 894.86 1250.01 1174.25 1249.99
  C 1180.64 1249.99 1188.76 1249.64 1196.02 1249.72
  C 1222.29 1249.98 1242.33 1234.06 1248.67 1208.57
  C 1250.73 1200.26 1249.92 1190.66 1249.93 1182.00
  Q 1250.04 1018.39 1249.98 854.77
  C 1249.97 845.44 1249.61 832.88 1249.75 821.91
  Q 1249.92 808.16 1249.09 803.25
  C 1244.27 774.80 1221.58 759.07 1193.35 759.45
  C 1191.62 759.48 1189.66 758.75 1188.25 758.75
  Q 1079.66 758.75 971.24 758.75
  A 1.00 1.00 0.0 0 1 970.24 757.75
  Q 970.28 558.53 970.05 359.31
  Q 970.03 340.52 969.43 321.75
  C 968.71 299.33 956.08 282.57 938.80 269.70
  C 917.30 253.70 891.65 242.80 866.22 234.84
  Q 828.76 223.10 790.11 216.41
  C 745.36 208.66 700.60 203.02 655.75 200.51
  Q 542.24 194.17 428.49 208.40
  C 383.95 213.98 339.12 222.29 296.48 236.56
  C 259.77 248.85 198.76 275.91 198.75 322.87
  Q 198.74 654.07 198.75 985.28
  Z"
/>
<path fill="#ffffff" d="
  M 374.22 1090.91
  C 324.88 1081.78 198.76 1053.51 198.75 985.28
  Q 198.74 654.07 198.75 322.87
  C 198.76 275.91 259.77 248.85 296.48 236.56
  C 339.12 222.29 383.95 213.98 428.49 208.40
  Q 542.24 194.17 655.75 200.51
  C 700.60 203.02 745.36 208.66 790.11 216.41
  Q 828.76 223.10 866.22 234.84
  C 891.65 242.80 917.30 253.70 938.80 269.70
  C 956.08 282.57 968.71 299.33 969.43 321.75
  Q 970.03 340.52 970.05 359.31
  Q 970.28 558.53 970.24 757.75
  A 1.00 1.00 0.0 0 0 971.24 758.75
  Q 1079.66 758.75 1188.25 758.75
  C 1189.66 758.75 1191.62 759.48 1193.35 759.45
  C 1221.58 759.07 1244.27 774.80 1249.09 803.25
  Q 1249.92 808.16 1249.75 821.91
  C 1249.61 832.88 1249.97 845.44 1249.98 854.77
  Q 1250.04 1018.39 1249.93 1182.00
  C 1249.92 1190.66 1250.73 1200.26 1248.67 1208.57
  C 1242.33 1234.06 1222.29 1249.98 1196.02 1249.72
  C 1188.76 1249.64 1180.64 1249.99 1174.25 1249.99
  Q 894.86 1250.01 615.47 1250.00
  C 608.79 1250.00 599.19 1250.56 592.33 1249.02
  C 565.70 1243.05 549.19 1223.19 549.08 1195.68
  Q 548.92 1152.86 549.02 1110.69
  A 1.01 1.01 0.0 0 0 548.03 1109.68
  C 544.82 1109.65 541.41 1108.99 538.48 1108.89
  Q 455.68 1105.98 374.22 1090.91
  Z
  M 239.30 309.56
  C 219.92 335.75 268.35 355.63 284.49 362.29
  C 325.92 379.40 370.95 390.43 414.00 396.74
  Q 490.10 407.89 571.43 409.04
  C 659.70 410.27 748.68 401.72 834.21 379.36
  C 851.77 374.77 953.91 344.43 931.06 311.67
  C 919.66 295.34 897.31 285.51 878.21 278.09
  C 832.66 260.40 784.61 249.84 736.20 243.88
  C 664.54 235.07 591.70 231.99 520.69 235.92
  C 449.78 239.84 380.24 248.20 312.95 269.66
  C 293.16 275.98 273.25 283.67 255.61 294.79
  Q 245.52 301.16 239.30 309.56
  Z
  M 234.77 551.99
  C 236.42 567.52 267.55 583.26 281.37 588.95
  Q 326.06 607.36 373.58 616.61
  C 501.88 641.61 633.97 642.66 762.99 622.45
  Q 808.77 615.27 853.02 601.58
  C 875.78 594.53 898.53 585.80 917.97 571.77
  C 934.54 559.81 934.70 548.80 934.73 529.75
  Q 934.85 456.25 934.55 382.75
  Q 934.54 380.31 934.15 378.17
  A 1.00 1.00 0.0 0 0 932.64 377.50
  Q 915.05 388.47 895.85 396.21
  Q 846.89 415.95 794.94 425.44
  C 667.21 448.77 536.16 450.08 407.76 431.46
  C 348.37 422.85 288.14 409.55 236.54 377.93
  Q 233.77 376.24 233.77 379.49
  Q 233.72 459.61 233.77 539.90
  C 233.77 543.90 234.34 548.00 234.77 551.99
  Z
  M 234.25 775.23
  C 237.18 794.04 254.65 804.46 270.31 811.72
  C 322.21 835.79 378.98 848.21 437.00 855.01
  Q 492.38 861.50 537.43 863.20
  Q 543.05 863.42 548.11 863.20
  A 1.00 1.00 0.0 0 0 549.07 862.20
  Q 548.81 836.24 549.21 811.00
  Q 549.31 804.62 551.67 796.62
  C 558.20 774.46 575.93 761.27 599.28 759.78
  C 607.29 759.27 615.12 758.75 623.25 758.75
  Q 778.32 758.75 931.91 758.75
  Q 935.04 758.75 934.88 755.63
  Q 934.42 746.54 934.54 737.53
  C 935.14 694.27 934.80 650.93 934.63 607.65
  Q 934.61 604.01 931.52 605.93
  C 904.69 622.58 874.76 633.97 843.93 642.16
  Q 794.01 655.41 742.76 661.86
  C 623.04 676.92 501.09 675.29 382.07 654.96
  Q 335.16 646.95 290.17 631.22
  Q 261.27 621.12 235.28 604.94
  Q 233.75 603.98 233.75 605.79
  L 233.75 768.75
  Q 233.75 771.96 234.25 775.23
  Z
  M 584.49 1193.51
  C 584.49 1208.96 591.89 1214.75 606.50 1214.76
  Q 896.92 1215.00 1187.33 1215.00
  C 1199.06 1215.00 1209.18 1214.67 1213.41 1203.32
  Q 1215.00 1199.05 1215.00 1185.99
  Q 1215.01 1003.78 1214.99 821.57
  C 1214.99 809.73 1214.47 800.42 1203.08 796.10
  Q 1199.51 794.75 1192.73 794.75
  Q 900.39 794.75 608.06 794.75
  Q 599.39 794.75 595.63 796.23
  C 587.16 799.57 584.50 806.65 584.50 815.58
  Q 584.51 1004.54 584.49 1193.51
  Z
  M 256.65 1014.62
  C 277.34 1026.68 300.70 1035.50 323.59 1042.35
  Q 355.34 1051.85 387.98 1057.62
  Q 456.77 1069.76 526.56 1072.73
  Q 526.90 1072.75 527.29 1073.00
  A 0.95 0.92 -26.5 0 0 527.83 1073.17
  L 546.76 1073.51
  Q 549.00 1073.55 549.00 1071.44
  L 549.00 900.18
  A 1.00 1.00 0.0 0 0 548.06 899.18
  Q 540.04 898.74 531.94 898.44
  Q 441.77 895.18 353.53 876.84
  C 311.12 868.03 271.56 855.38 236.45 833.56
  Q 233.76 831.89 233.76 835.05
  Q 233.73 907.78 233.76 980.50
  C 233.76 995.79 244.00 1007.26 256.65 1014.62
  Z"
/>
<path fill="#333333" d="
  M 284.49 362.29
  C 268.35 355.63 219.92 335.75 239.30 309.56
  Q 245.52 301.16 255.61 294.79
  C 273.25 283.67 293.16 275.98 312.95 269.66
  C 380.24 248.20 449.78 239.84 520.69 235.92
  C 591.70 231.99 664.54 235.07 736.20 243.88
  C 784.61 249.84 832.66 260.40 878.21 278.09
  C 897.31 285.51 919.66 295.34 931.06 311.67
  C 953.91 344.43 851.77 374.77 834.21 379.36
  C 748.68 401.72 659.70 410.27 571.43 409.04
  Q 490.10 407.89 414.00 396.74
  C 370.95 390.43 325.92 379.40 284.49 362.29
  Z"
/>
<path fill="#333333" d="
  M 281.37 588.95
  C 267.55 583.26 236.42 567.52 234.77 551.99
  C 234.34 548.00 233.77 543.90 233.77 539.90
  Q 233.72 459.61 233.77 379.49
  Q 233.77 376.24 236.54 377.93
  C 288.14 409.55 348.37 422.85 407.76 431.46
  C 536.16 450.08 667.21 448.77 794.94 425.44
  Q 846.89 415.95 895.85 396.21
  Q 915.05 388.47 932.64 377.50
  A 1.00 1.00 0.0 0 1 934.15 378.17
  Q 934.54 380.31 934.55 382.75
  Q 934.85 456.25 934.73 529.75
  C 934.70 548.80 934.54 559.81 917.97 571.77
  C 898.53 585.80 875.78 594.53 853.02 601.58
  Q 808.77 615.27 762.99 622.45
  C 633.97 642.66 501.88 641.61 373.58 616.61
  Q 326.06 607.36 281.37 588.95
  Z"
/>
<path fill="#333333" d="
  M 270.31 811.72
  C 254.65 804.46 237.18 794.04 234.25 775.23
  Q 233.75 771.96 233.75 768.75
  L 233.75 605.79
  Q 233.75 603.98 235.28 604.94
  Q 261.27 621.12 290.17 631.22
  Q 335.16 646.95 382.07 654.96
  C 501.09 675.29 623.04 676.92 742.76 661.86
  Q 794.01 655.41 843.93 642.16
  C 874.76 633.97 904.69 622.58 931.52 605.93
  Q 934.61 604.01 934.63 607.65
  C 934.80 650.93 935.14 694.27 934.54 737.53
  Q 934.42 746.54 934.88 755.63
  Q 935.04 758.75 931.91 758.75
  Q 778.32 758.75 623.25 758.75
  C 615.12 758.75 607.29 759.27 599.28 759.78
  C 575.93 761.27 558.20 774.46 551.67 796.62
  Q 549.31 804.62 549.21 811.00
  Q 548.81 836.24 549.07 862.20
  A 1.00 1.00 0.0 0 1 548.11 863.20
  Q 543.05 863.42 537.43 863.20
  Q 492.38 861.50 437.00 855.01
  C 378.98 848.21 322.21 835.79 270.31 811.72
  Z"
/>
<path fill="#333333" d="
  M 606.50 1214.76
  C 591.89 1214.75 584.49 1208.96 584.49 1193.51
  Q 584.51 1004.54 584.50 815.58
  C 584.50 806.65 587.16 799.57 595.63 796.23
  Q 599.39 794.75 608.06 794.75
  Q 900.39 794.75 1192.73 794.75
  Q 1199.51 794.75 1203.08 796.10
  C 1214.47 800.42 1214.99 809.73 1214.99 821.57
  Q 1215.01 1003.78 1215.00 1185.99
  Q 1215.00 1199.05 1213.41 1203.32
  C 1209.18 1214.67 1199.06 1215.00 1187.33 1215.00
  Q 896.92 1215.00 606.50 1214.76
  Z
  M 664.43 915.42
  C 636.85 962.34 668.21 1019.29 721.77 1022.36
  C 735.03 1023.12 745.30 1026.45 752.76 1037.99
  C 767.75 1061.17 753.59 1090.23 726.00 1091.71
  C 707.78 1092.69 692.02 1078.94 689.87 1060.85
  Q 689.04 1053.88 688.48 1052.28
  C 683.40 1037.72 663.52 1034.33 656.48 1049.00
  Q 654.38 1053.40 654.43 1060.48
  C 654.64 1090.51 677.60 1117.36 705.77 1124.95
  C 743.22 1135.04 783.11 1111.88 792.70 1074.47
  C 797.03 1057.56 794.40 1038.77 785.93 1023.51
  Q 769.49 993.91 733.96 987.69
  C 728.25 986.69 720.28 986.75 714.75 985.27
  C 693.86 979.68 684.72 956.29 693.12 937.11
  C 705.91 907.91 747.03 912.39 757.11 941.36
  C 758.71 945.95 759.08 952.90 760.59 957.14
  C 764.04 966.81 773.50 972.80 783.48 968.44
  C 792.11 964.66 795.23 955.06 794.09 946.18
  C 789.97 914.05 767.36 886.96 734.43 882.55
  C 706.84 878.86 678.86 890.87 664.43 915.42
  Z
  M 830.30 1067.18
  C 836.80 1116.60 890.78 1141.75 934.30 1118.06
  A 1.02 1.01 -35.5 0 1 935.52 1118.26
  Q 939.26 1122.32 940.17 1123.07
  C 959.07 1138.43 983.19 1108.76 960.50 1093.56
  A 1.00 1.00 0.0 0 1 960.19 1092.23
  C 969.07 1076.81 969.83 1063.52 970.02 1044.50
  Q 970.42 1005.75 969.79 967.00
  C 969.62 956.14 969.66 943.76 967.12 934.17
  C 947.51 860.02 837.68 867.16 830.22 944.40
  Q 829.50 951.84 829.47 954.75
  Q 829.03 1000.72 829.35 1046.69
  Q 829.45 1060.74 830.30 1067.18
  Z
  M 1039.86 1090.98
  A 1.01 1.00 20.9 0 1 1039.52 1090.23
  Q 1039.49 996.04 1039.50 901.72
  C 1039.51 877.71 1007.20 874.23 1004.95 897.89
  C 1004.66 900.99 1004.27 903.69 1004.26 906.00
  Q 1004.17 953.00 1004.29 1107.69
  C 1004.30 1118.71 1011.31 1127.24 1022.51 1127.25
  Q 1072.34 1127.27 1122.15 1127.23
  Q 1130.85 1127.22 1134.52 1125.72
  C 1151.18 1118.90 1146.37 1092.46 1128.00 1092.46
  Q 1085.47 1092.46 1042.95 1092.25
  C 1041.35 1092.24 1041.00 1091.98 1039.86 1090.98
  Z"
/>
<path fill="#333333" d="
  M 256.65 1014.62
  C 244.00 1007.26 233.76 995.79 233.76 980.50
  Q 233.73 907.78 233.76 835.05
  Q 233.76 831.89 236.45 833.56
  C 271.56 855.38 311.12 868.03 353.53 876.84
  Q 441.77 895.18 531.94 898.44
  Q 540.04 898.74 548.06 899.18
  A 1.00 1.00 0.0 0 1 549.00 900.18
  L 549.00 1071.44
  Q 549.00 1073.55 546.76 1073.51
  L 527.83 1073.17
  A 0.95 0.92 -26.5 0 1 527.29 1073.00
  Q 526.90 1072.75 526.56 1072.73
  Q 456.77 1069.76 387.98 1057.62
  Q 355.34 1051.85 323.59 1042.35
  C 300.70 1035.50 277.34 1026.68 256.65 1014.62
  Z"
/>
<path fill="#ffffff" d="
  M 721.77 1022.36
  C 668.21 1019.29 636.85 962.34 664.43 915.42
  C 678.86 890.87 706.84 878.86 734.43 882.55
  C 767.36 886.96 789.97 914.05 794.09 946.18
  C 795.23 955.06 792.11 964.66 783.48 968.44
  C 773.50 972.80 764.04 966.81 760.59 957.14
  C 759.08 952.90 758.71 945.95 757.11 941.36
  C 747.03 912.39 705.91 907.91 693.12 937.11
  C 684.72 956.29 693.86 979.68 714.75 985.27
  C 720.28 986.75 728.25 986.69 733.96 987.69
  Q 769.49 993.91 785.93 1023.51
  C 794.40 1038.77 797.03 1057.56 792.70 1074.47
  C 783.11 1111.88 743.22 1135.04 705.77 1124.95
  C 677.60 1117.36 654.64 1090.51 654.43 1060.48
  Q 654.38 1053.40 656.48 1049.00
  C 663.52 1034.33 683.40 1037.72 688.48 1052.28
  Q 689.04 1053.88 689.87 1060.85
  C 692.02 1078.94 707.78 1092.69 726.00 1091.71
  C 753.59 1090.23 767.75 1061.17 752.76 1037.99
  C 745.30 1026.45 735.03 1023.12 721.77 1022.36
  Z"
/>
<path fill="#ffffff" d="
  M 934.30 1118.06
  C 890.78 1141.75 836.80 1116.60 830.30 1067.18
  Q 829.45 1060.74 829.35 1046.69
  Q 829.03 1000.72 829.47 954.75
  Q 829.50 951.84 830.22 944.40
  C 837.68 867.16 947.51 860.02 967.12 934.17
  C 969.66 943.76 969.62 956.14 969.79 967.00
  Q 970.42 1005.75 970.02 1044.50
  C 969.83 1063.52 969.07 1076.81 960.19 1092.23
  A 1.00 1.00 0.0 0 0 960.50 1093.56
  C 983.19 1108.76 959.07 1138.43 940.17 1123.07
  Q 939.26 1122.32 935.52 1118.26
  A 1.02 1.01 -35.5 0 0 934.30 1118.06
  Z
  M 878.44 1084.31
  Q 890.17 1093.94 905.24 1090.95
  Q 906.95 1090.61 905.80 1089.30
  Q 903.49 1086.70 901.79 1083.52
  C 892.01 1065.26 916.43 1047.67 931.04 1063.48
  Q 933.39 1066.02 933.61 1062.57
  C 935.33 1035.96 934.20 1008.73 934.63 982.00
  Q 934.93 963.89 934.05 950.45
  C 931.44 910.87 876.30 905.39 866.30 943.40
  Q 864.79 949.17 864.76 962.29
  Q 864.68 1004.72 864.81 1047.21
  C 864.86 1064.22 865.88 1074.01 878.44 1084.31
  Z"
/>
<path fill="#ffffff" d="
  M 1039.86 1090.98
  C 1041.00 1091.98 1041.35 1092.24 1042.95 1092.25
  Q 1085.47 1092.46 1128.00 1092.46
  C 1146.37 1092.46 1151.18 1118.90 1134.52 1125.72
  Q 1130.85 1127.22 1122.15 1127.23
  Q 1072.34 1127.27 1022.51 1127.25
  C 1011.31 1127.24 1004.30 1118.71 1004.29 1107.69
  Q 1004.17 953.00 1004.26 906.00
  C 1004.27 903.69 1004.66 900.99 1004.95 897.89
  C 1007.20 874.23 1039.51 877.71 1039.50 901.72
  Q 1039.49 996.04 1039.52 1090.23
  A 1.01 1.00 20.9 0 0 1039.86 1090.98
  Z"
/>
<path fill="#333333" d="
  M 878.44 1084.31
  C 865.88 1074.01 864.86 1064.22 864.81 1047.21
  Q 864.68 1004.72 864.76 962.29
  Q 864.79 949.17 866.30 943.40
  C 876.30 905.39 931.44 910.87 934.05 950.45
  Q 934.93 963.89 934.63 982.00
  C 934.20 1008.73 935.33 1035.96 933.61 1062.57
  Q 933.39 1066.02 931.04 1063.48
  C 916.43 1047.67 892.01 1065.26 901.79 1083.52
  Q 903.49 1086.70 905.80 1089.30
  Q 906.95 1090.61 905.24 1090.95
  Q 890.17 1093.94 878.44 1084.31
  Z"
/>
</svg>
