<?xml version="1.0" encoding="UTF-8" standalone="no"?>
<!DOCTYPE svg PUBLIC "-//W3C//DTD SVG 1.1//EN" "http://www.w3.org/Graphics/SVG/1.1/DTD/svg11.dtd">
<svg xmlns="http://www.w3.org/2000/svg" version="1.1" viewBox="0 0 512 512">
<path fill="#333333" d="
  M 0.00 0.00
  L 512.00 0.00
  L 512.00 512.00
  L 0.00 512.00
  L 0.00 0.00
  Z
  M 428.28 462.04
  C 458.01 451.41 471.75 426.83 469.13 395.68
  C 466.65 366.20 443.30 349.09 418.32 338.41
  C 400.10 330.61 359.11 317.02 370.71 292.21
  C 379.21 274.02 412.63 276.36 428.14 279.52
  Q 444.27 282.80 458.48 291.55
  Q 460.00 292.49 460.00 290.70
  L 460.00 247.92
  A 1.01 1.01 0.0 0 0 459.36 246.98
  C 418.62 231.49 334.31 231.89 318.72 286.21
  C 309.03 319.95 327.00 348.65 356.57 363.44
  C 368.43 369.37 389.92 376.50 404.26 386.50
  C 414.68 393.78 421.55 406.04 414.61 417.36
  C 408.28 427.66 393.72 430.56 381.98 430.77
  Q 346.42 431.41 318.60 409.76
  Q 316.99 408.50 316.99 410.55
  L 317.01 456.27
  A 1.00 1.00 0.0 0 0 317.58 457.17
  C 349.65 472.46 395.90 473.62 428.28 462.04
  Z
  M 118.00 283.68
  A 0.32 0.32 0.0 0 0 118.32 284.00
  L 181.68 284.00
  A 0.32 0.32 0.0 0 1 182.00 284.32
  L 182.00 466.68
  A 0.32 0.32 0.0 0 0 182.32 467.00
  L 231.68 467.00
  A 0.32 0.32 0.0 0 0 232.00 466.68
  L 232.00 284.32
  A 0.32 0.32 0.0 0 1 232.32 284.00
  L 296.68 284.00
  A 0.32 0.32 0.0 0 0 297.00 283.68
  L 297.00 243.32
  A 0.32 0.32 0.0 0 0 296.68 243.00
  L 118.32 243.00
  A 0.32 0.32 0.0 0 0 118.00 243.32
  L 118.00 283.68
  Z"
/>
</svg>
