<?xml version="1.0" encoding="UTF-8" standalone="no"?>
<!DOCTYPE svg PUBLIC "-//W3C//DTD SVG 1.1//EN" "http://www.w3.org/Graphics/SVG/1.1/DTD/svg11.dtd">
<svg xmlns="http://www.w3.org/2000/svg" version="1.1" viewBox="0 0 512 512">
<path fill="#333333" d="
  M 0.00 0.00
  L 512.00 0.00
  L 512.00 512.00
  L 0.00 512.00
  L 0.00 0.00
  Z
  M 317.37 401.84
  C 361.71 384.01 397.57 342.39 409.14 296.07
  Q 420.62 250.12 405.13 204.54
  C 387.31 152.14 342.66 112.65 288.36 101.34
  C 276.89 98.95 264.59 98.64 252.51 98.63
  C 163.92 98.63 91.76 176.72 97.82 264.94
  Q 99.63 291.34 110.70 318.77
  C 129.03 364.23 173.45 400.78 221.73 410.81
  C 254.23 417.56 286.63 414.20 317.37 401.84
  Z"
/>
<path fill="#333333" d="
  M 295.67 179.16
  Q 295.22 176.60 291.45 176.76
  Q 281.22 177.18 270.99 177.46
  C 255.96 177.88 239.96 176.79 224.41 176.73
  C 221.25 176.72 216.70 176.05 212.75 176.47
  Q 210.10 176.76 209.53 179.35
  Q 208.08 185.84 214.59 186.60
  Q 222.15 187.49 228.96 188.14
  A 1.01 1.00 82.4 0 1 229.80 188.79
  Q 240.50 217.46 250.74 246.21
  C 251.99 249.70 251.30 252.46 250.21 255.74
  Q 235.89 298.86 221.50 341.95
  Q 221.12 343.10 220.33 343.51
  A 1.00 0.99 67.0 0 1 218.93 342.94
  L 167.28 189.30
  A 1.00 1.00 0.0 0 1 168.13 187.99
  C 172.55 187.54 187.40 187.91 188.74 182.57
  C 189.72 178.66 186.14 175.93 182.27 176.24
  Q 160.47 177.93 138.60 178.01
  C 137.04 178.01 133.53 178.90 135.93 175.70
  Q 143.58 165.52 147.35 161.11
  Q 176.59 126.98 220.93 116.20
  C 268.92 104.53 315.27 116.51 352.20 148.61
  Q 353.89 150.08 351.67 150.36
  C 336.35 152.28 325.42 163.59 327.57 179.21
  C 329.85 195.80 342.93 208.52 348.72 223.84
  Q 357.14 246.13 349.82 270.57
  Q 339.06 306.46 328.25 342.41
  Q 327.35 345.42 326.34 342.44
  L 274.92 189.57
  A 1.01 1.01 0.0 0 1 275.78 188.25
  L 293.52 186.64
  Q 296.91 186.33 296.34 183.02
  L 295.67 179.16
  Z"
/>
<path fill="#333333" d="
  M 377.56 233.83
  C 382.02 218.58 382.12 206.55 381.98 188.74
  A 0.67 0.67 0.0 0 1 382.23 188.22
  Q 382.83 187.76 383.40 188.84
  Q 409.78 238.64 395.14 293.59
  C 385.61 329.35 363.53 357.69 332.89 377.92
  Q 330.42 379.55 329.16 379.90
  Q 327.36 380.39 327.95 378.61
  Q 346.18 323.99 365.48 269.74
  C 369.69 257.90 375.02 242.53 377.56 233.83
  Z"
/>
<path fill="#333333" d="
  M 192.40 385.64
  C 123.20 351.14 92.69 269.36 123.74 198.51
  Q 124.04 197.82 124.76 197.81
  A 0.80 0.79 78.8 0 1 125.51 198.32
  Q 126.65 201.18 127.69 204.02
  Q 160.84 294.33 193.79 384.40
  Q 194.65 386.76 192.40 385.64
  Z"
/>
<path fill="#333333" d="
  M 215.45 394.30
  A 1.00 0.99 17.1 0 1 214.77 393.02
  L 256.60 271.07
  Q 258.18 266.45 259.83 270.97
  L 303.74 391.02
  A 1.01 1.00 -19.4 0 1 303.11 392.32
  Q 259.63 406.58 215.45 394.30
  Z"
/>
</svg>
