<?xml version="1.0" encoding="UTF-8" standalone="no"?>
<!DOCTYPE svg PUBLIC "-//W3C//DTD SVG 1.1//EN" "http://www.w3.org/Graphics/SVG/1.1/DTD/svg11.dtd">
<svg xmlns="http://www.w3.org/2000/svg" version="1.1" viewBox="0 0 512 512">
<path fill="#333333" d="
  M 0.00 0.00
  L 512.00 0.00
  L 512.00 512.00
  L 0.00 512.00
  L 0.00 0.00
  Z
  M 279.92 293.28
  C 285.92 337.74 322.08 361.42 364.75 362.06
  C 388.12 362.41 414.84 358.42 436.03 348.02
  A 1.03 1.02 79.7 0 0 436.58 347.22
  C 437.03 343.00 436.19 338.04 436.18 334.75
  Q 435.84 225.88 436.05 117.00
  A 1.01 1.00 90.0 0 0 435.05 115.99
  L 390.00 116.01
  A 1.00 1.00 0.0 0 0 389.00 117.01
  L 389.00 184.88
  A 1.00 1.00 0.0 0 1 388.02 185.88
  Q 380.77 185.99 373.53 186.04
  C 340.16 186.25 308.11 200.29 290.79 229.90
  C 279.20 249.72 276.84 270.55 279.92 293.28
  Z
  M 176.29 217.84
  Q 175.39 219.54 174.51 217.82
  Q 170.78 210.50 166.96 203.24
  Q 163.90 197.41 158.75 188.46
  Q 143.57 162.05 130.82 135.58
  A 1.00 1.00 0.0 0 0 129.92 135.01
  L 77.92 134.99
  Q 76.16 134.99 77.06 136.50
  L 141.86 246.02
  A 1.01 1.01 0.0 0 1 141.85 247.05
  L 75.19 356.48
  Q 74.27 358.00 76.05 358.00
  L 125.69 357.99
  A 1.01 1.00 -75.3 0 0 126.57 357.47
  Q 149.27 316.31 170.88 274.57
  Q 171.73 272.92 172.64 274.54
  Q 195.48 315.18 216.80 356.66
  A 1.01 1.00 -9.7 0 0 217.56 357.19
  Q 223.14 357.94 228.75 357.95
  Q 250.25 358.01 271.75 357.99
  Q 274.61 357.99 273.26 355.77
  L 204.86 243.68
  A 1.02 1.02 0.0 0 1 204.86 242.64
  L 269.11 136.52
  Q 270.03 135.00 268.26 135.00
  L 220.73 135.00
  A 1.00 0.99 13.9 0 0 219.85 135.53
  L 176.29 217.84
  Z"
/>
<path fill="#333333" d="
  M 353.24 319.29
  C 328.01 310.97 322.51 278.95 328.39 257.00
  Q 330.22 250.17 334.12 244.81
  C 347.06 227.03 366.90 222.19 388.14 225.51
  A 1.02 1.00 -86.0 0 1 388.99 226.50
  L 389.01 320.17
  A 1.02 1.01 -3.9 0 1 388.13 321.17
  C 376.39 322.65 364.69 323.06 353.24 319.29
  Z"
/>
</svg>
