<?xml version="1.0" encoding="utf-8"?>
<!-- Generator: Adobe Illustrator 15.1.0, SVG Export Plug-In . SVG Version: 6.00 Build 0)  -->
<!DOCTYPE svg PUBLIC "-//W3C//DTD SVG 1.1//EN" "http://www.w3.org/Graphics/SVG/1.1/DTD/svg11.dtd">
<svg version="1.1" id="レイヤー_1" xmlns="http://www.w3.org/2000/svg" xmlns:xlink="http://www.w3.org/1999/xlink" x="0px"
	 y="0px" width="120px" height="40px" viewBox="0 0 120 40" enable-background="new 0 0 120 40" xml:space="preserve">
<text transform="matrix(1 0 0 1 11.667 -25.8213)" fill="#2B3137" font-family="'Arial-BoldMT'" font-size="31.8021">Mag88</text>
<rect fill="#2A2A2A" width="120" height="40"/>
<g>
	<path fill="#FFFFFF" d="M13.351,29.333V6.568h6.879l4.13,15.529l4.084-15.529h6.895v22.765h-4.271v-17.92l-4.519,17.92h-4.425
		l-4.503-17.92v17.92H13.351z"/>
	<path fill="#FFFFFF" d="M43.134,17.872l-3.96-0.714c0.445-1.595,1.211-2.774,2.299-3.54c1.087-0.766,2.701-1.149,4.845-1.149
		c1.946,0,3.396,0.23,4.348,0.69c0.952,0.461,1.623,1.047,2.011,1.756c0.389,0.709,0.582,2.01,0.582,3.904l-0.046,5.094
		c0,1.449,0.069,2.518,0.21,3.207c0.139,0.688,0.4,1.426,0.783,2.213h-4.316c-0.113-0.29-0.254-0.72-0.419-1.289
		c-0.073-0.259-0.124-0.43-0.155-0.513c-0.746,0.725-1.543,1.269-2.392,1.63c-0.849,0.363-1.755,0.544-2.718,0.544
		c-1.697,0-3.035-0.46-4.014-1.382s-1.467-2.086-1.467-3.494c0-0.932,0.222-1.762,0.667-2.492c0.444-0.73,1.069-1.289,1.871-1.677
		c0.802-0.389,1.959-0.728,3.471-1.018c2.039-0.383,3.452-0.739,4.239-1.071v-0.435c0-0.839-0.207-1.437-0.621-1.794
		s-1.195-0.535-2.345-0.535c-0.776,0-1.382,0.152-1.817,0.458C43.755,16.571,43.403,17.106,43.134,17.872z M48.973,21.413
		c-0.559,0.187-1.444,0.409-2.655,0.668c-1.212,0.259-2.003,0.512-2.376,0.761c-0.569,0.403-0.854,0.916-0.854,1.537
		c0,0.61,0.227,1.14,0.683,1.584c0.456,0.445,1.035,0.667,1.739,0.667c0.787,0,1.537-0.258,2.252-0.775
		c0.527-0.394,0.875-0.875,1.04-1.444c0.114-0.373,0.171-1.081,0.171-2.128V21.413z"/>
	<path fill="#FFFFFF" d="M57.157,30.419l4.984,0.605c0.083,0.58,0.274,0.979,0.574,1.196c0.414,0.311,1.066,0.466,1.957,0.466
		c1.139,0,1.992-0.171,2.563-0.512c0.383-0.229,0.673-0.596,0.869-1.104c0.135-0.362,0.202-1.029,0.202-2.003v-2.407
		c-1.304,1.781-2.95,2.672-4.938,2.672c-2.215,0-3.97-0.938-5.264-2.811c-1.015-1.48-1.521-3.324-1.521-5.529
		c0-2.764,0.664-4.875,1.995-6.335c1.33-1.46,2.983-2.189,4.962-2.189c2.039,0,3.721,0.896,5.046,2.687v-2.314h4.084V27.64
		c0,1.946-0.161,3.4-0.481,4.363s-0.771,1.719-1.351,2.268c-0.58,0.549-1.354,0.979-2.321,1.289
		c-0.969,0.311-2.192,0.466-3.673,0.466c-2.795,0-4.778-0.479-5.947-1.437c-1.17-0.957-1.755-2.172-1.755-3.642
		C57.141,30.802,57.147,30.626,57.157,30.419z M61.054,20.745c0,1.75,0.339,3.031,1.017,3.844c0.679,0.813,1.515,1.219,2.508,1.219
		c1.066,0,1.967-0.416,2.703-1.25c0.734-0.834,1.102-2.068,1.102-3.703c0-1.709-0.352-2.977-1.056-3.805s-1.595-1.242-2.671-1.242
		c-1.045,0-1.907,0.406-2.586,1.219C61.393,17.839,61.054,19.079,61.054,20.745z"/>
	<path fill="#FFFFFF" d="M79.797,17.05c-1.129-0.477-1.949-1.131-2.462-1.965c-0.513-0.833-0.769-1.746-0.769-2.74
		c0-1.697,0.593-3.101,1.778-4.208c1.185-1.107,2.87-1.662,5.054-1.662c2.164,0,3.844,0.554,5.039,1.662
		c1.196,1.108,1.794,2.511,1.794,4.208c0,1.056-0.274,1.995-0.823,2.818c-0.549,0.822-1.32,1.451-2.313,1.887
		c1.263,0.508,2.224,1.248,2.88,2.221c0.658,0.973,0.986,2.096,0.986,3.369c0,2.102-0.67,3.811-2.011,5.125
		s-3.124,1.972-5.349,1.972c-2.071,0-3.795-0.544-5.172-1.63c-1.625-1.284-2.438-3.045-2.438-5.28c0-1.231,0.305-2.362,0.916-3.394
		C77.52,18.403,78.482,17.608,79.797,17.05z M80.293,22.407c0,1.201,0.309,2.138,0.924,2.811c0.616,0.673,1.385,1.01,2.307,1.01
		c0.9,0,1.646-0.324,2.236-0.971c0.59-0.647,0.885-1.582,0.885-2.803c0-1.066-0.301-1.924-0.9-2.57
		c-0.602-0.646-1.361-0.971-2.283-0.971c-1.066,0-1.861,0.367-2.383,1.103C80.555,20.751,80.293,21.548,80.293,22.407z
		 M80.698,12.655c0,0.869,0.246,1.547,0.737,2.034c0.491,0.486,1.146,0.729,1.964,0.729c0.828,0,1.491-0.246,1.988-0.737
		s0.745-1.173,0.745-2.042c0-0.818-0.246-1.473-0.737-1.965c-0.492-0.491-1.142-0.737-1.949-0.737c-0.838,0-1.506,0.249-2.003,0.745
		C80.946,11.18,80.698,11.837,80.698,12.655z"/>
	<path fill="#FFFFFF" d="M97.484,17.05c-1.128-0.477-1.948-1.131-2.462-1.965c-0.512-0.833-0.768-1.746-0.768-2.74
		c0-1.697,0.592-3.101,1.777-4.208c1.186-1.107,2.871-1.662,5.055-1.662c2.164,0,3.844,0.554,5.039,1.662
		c1.195,1.108,1.793,2.511,1.793,4.208c0,1.056-0.273,1.995-0.822,2.818c-0.549,0.822-1.32,1.451-2.314,1.887
		c1.264,0.508,2.224,1.248,2.881,2.221c0.658,0.973,0.986,2.096,0.986,3.369c0,2.102-0.67,3.811-2.012,5.125
		c-1.34,1.314-3.123,1.972-5.349,1.972c-2.071,0-3.794-0.544-5.171-1.63c-1.625-1.284-2.438-3.045-2.438-5.28
		c0-1.231,0.305-2.362,0.916-3.394C95.207,18.403,96.168,17.608,97.484,17.05z M97.981,22.407c0,1.201,0.308,2.138,0.924,2.811
		c0.615,0.673,1.385,1.01,2.307,1.01c0.9,0,1.646-0.324,2.235-0.971c0.591-0.647,0.886-1.582,0.886-2.803
		c0-1.066-0.301-1.924-0.901-2.57s-1.361-0.971-2.282-0.971c-1.066,0-1.861,0.367-2.384,1.103S97.981,21.548,97.981,22.407z
		 M98.385,12.655c0,0.869,0.245,1.547,0.736,2.034c0.492,0.486,1.146,0.729,1.965,0.729c0.828,0,1.49-0.246,1.988-0.737
		c0.496-0.491,0.744-1.173,0.744-2.042c0-0.818-0.246-1.473-0.736-1.965c-0.492-0.491-1.143-0.737-1.949-0.737
		c-0.839,0-1.506,0.249-2.004,0.745C98.633,11.18,98.385,11.837,98.385,12.655z"/>
</g>
</svg>
