<?xml version="1.0" encoding="utf-8"?>
<!-- Generator: Adobe Illustrator 15.1.0, SVG Export Plug-In . SVG Version: 6.00 Build 0)  -->
<!DOCTYPE svg PUBLIC "-//W3C//DTD SVG 1.1//EN" "http://www.w3.org/Graphics/SVG/1.1/DTD/svg11.dtd">
<svg version="1.1" id="レイヤー_1" xmlns="http://www.w3.org/2000/svg" xmlns:xlink="http://www.w3.org/1999/xlink" x="0px"
	 y="0px" width="1450px" height="250px" viewBox="0 0 1450 250" enable-background="new 0 0 1450 250" xml:space="preserve">
<g>
	<path fill="#333333" d="M86.115,241.042V48.219H17.25V8.958h184.433v39.262h-68.707v192.823H86.115z"/>
	<path fill="#333333" d="M210.101,126.425c0-23.64,3.535-43.481,10.607-59.524c5.276-11.819,12.479-22.427,21.609-31.821
		c9.128-9.392,19.128-16.358,30-20.896C286.775,8.062,303.45,5,322.343,5c34.196,0,61.557,10.607,82.085,31.821
		c20.526,21.213,30.792,50.714,30.792,88.496c0,37.468-10.187,66.782-30.554,87.941C384.295,234.42,357.066,245,322.977,245
		c-34.512,0-61.954-10.527-82.322-31.583C220.284,192.362,210.101,163.366,210.101,126.425z M258.386,124.842
		c0,26.279,6.068,46.202,18.206,59.762c12.135,13.563,27.546,20.343,46.227,20.343c18.68,0,34.01-6.729,45.989-20.185
		c11.978-13.457,17.968-33.642,17.968-60.554c0-26.596-5.833-46.437-17.493-59.525c-11.663-13.086-27.15-19.631-46.464-19.631
		s-34.883,6.625-46.702,19.868C264.295,78.167,258.386,98.142,258.386,124.842z"/>
	<path fill="#333333" d="M511.063,241.042V48.219h-68.866V8.958h184.433v39.262h-68.708v192.823H511.063z"/>
	<path fill="#333333" d="M855.132,241.042h-50.976l-20.264-52.718h-92.771l-19.155,52.718h-49.71L712.651,8.958h49.552
		L855.132,241.042z M768.852,149.222L736.874,63.1l-31.347,86.122H768.852z"/>
	<path fill="#333333" d="M887.737,241.042V10.857h46.86v191.082h116.518v39.103H887.737z"/>
	<path fill="#333333" d="M1085.785,241.042V10.857h46.86v191.082h116.516v39.103H1085.785z"/>
	<path fill="#333333" d="M1300.719,241.042v-97.678L1215.705,8.958h54.936l54.616,91.821l53.509-91.821h53.984l-85.329,134.723
		v97.362H1300.719z"/>
</g>
</svg>
