<?xml version="1.0" encoding="utf-8"?>
<!-- Generator: Adobe Illustrator 15.1.0, SVG Export Plug-In . SVG Version: 6.00 Build 0)  -->
<!DOCTYPE svg PUBLIC "-//W3C//DTD SVG 1.1//EN" "http://www.w3.org/Graphics/SVG/1.1/DTD/svg11.dtd">
<svg version="1.1" id="レイヤー_1" xmlns="http://www.w3.org/2000/svg" xmlns:xlink="http://www.w3.org/1999/xlink" x="0px"
	 y="0px" width="430px" height="130px" viewBox="0 0 430 130" enable-background="new 0 0 430 130" xml:space="preserve">
<g>
	<g>
		<path fill="#121212" d="M43.354,20.667h32.077c0.971,0,1.756,1.311,1.756,2.927c0,1.617-0.785,2.928-1.756,2.928H43.354
			c-0.969,0-1.756-1.311-1.756-2.928C41.598,21.978,42.385,20.667,43.354,20.667z"/>
	</g>
	<g>
		<path fill="#121212" d="M43.354,11.898h32.077c0.971,0,1.756,1.31,1.756,2.927c0,1.617-0.785,2.927-1.756,2.927H43.354
			c-0.969,0-1.756-1.311-1.756-2.927C41.598,13.208,42.385,11.898,43.354,11.898z"/>
	</g>
	<path fill="#F3E729" d="M42.082,29.395l-0.241,0.926c-1.649,6.324-4.323,12.623-7.947,18.721c-2.715,4.57-4.149,9.811-4.143,15.157
		c0.019,15.703,12.402,27.888,28.805,28.34c8.488,0.226,16.352-2.724,22.117-8.332c5.393-5.246,8.363-12.364,8.363-20.045
		c0-5.406-1.471-10.698-4.252-15.303c-3.507-5.805-6.088-11.826-7.671-17.899l-0.408-1.565"/>
	<g>
		<path fill="#121212" d="M59.393,99.782c1.619,0,2.928,0.786,2.928,1.756v18.708c0,0.969-1.31,1.756-2.928,1.756
			c-1.616,0-2.926-0.787-2.926-1.756v-18.708C56.466,100.568,57.777,99.782,59.393,99.782z"/>
	</g>
	<g>
		<path fill="#121212" d="M31.207,88.865c1.145,1.144,1.514,2.626,0.829,3.313l-13.228,13.228c-0.686,0.686-2.168,0.315-3.313-0.828
			c-1.143-1.143-1.513-2.625-0.828-3.311l13.229-13.229C28.581,87.352,30.064,87.722,31.207,88.865z"/>
	</g>
	<g>
		<path fill="#121212" d="M89.552,88.866c1.144-1.145,2.626-1.514,3.312-0.828l13.229,13.229c0.686,0.686,0.316,2.168-0.829,3.312
			c-1.142,1.142-2.625,1.513-3.311,0.827L88.725,92.177C88.039,91.491,88.41,90.009,89.552,88.866z"/>
	</g>
	<path fill="#231815" d="M59.393,29.395"/>
</g>
<text transform="matrix(1 0 0 1 125 79.9189)" font-family="'HiraKakuPro-W3-90ms-RKSJ-H'" font-size="38.5174" letter-spacing="2">明るい</text>
<text transform="matrix(1 0 0 1 248 81.4932)" font-family="'HiraKakuPro-W6-90ms-RKSJ-H'" font-size="38.5174" letter-spacing="2">HOUSE</text>
</svg>
